<svg width="105" height="106" viewBox="0 0 105 106" fill="none" xmlns="http://www.w3.org/2000/svg">
<path d="M49.5244 100.18C54.5982 97.4872 56.4139 91.2669 53.5798 86.287C50.7458 81.307 44.3352 79.4532 39.2614 82.1464C34.1875 84.8396 32.3719 91.0599 35.2059 96.0399C38.04 101.02 44.4506 102.874 49.5244 100.18Z" fill="#E5B20E"/>
<path d="M50.8284 99.2881C55.9022 96.5948 57.718 90.3745 54.8839 85.3945C52.0498 80.4146 45.6392 78.5608 40.5654 81.254C35.4915 83.9472 33.6759 90.1676 36.5099 95.1475C39.344 100.127 45.7546 101.981 50.8284 99.2881Z" fill="#FFDE82"/>
<path d="M49.6829 97.2751C53.624 95.1832 55.0344 90.3514 52.833 86.4831C50.6316 82.6149 45.6521 81.1749 41.7109 83.2669C37.7697 85.3589 36.3594 90.1907 38.5608 94.0589C40.7622 97.9272 45.7417 99.3671 49.6829 97.2751Z" stroke="#E5B20E" stroke-width="1.11" stroke-miterlimit="10"/>
<path style="mix-blend-mode:multiply" d="M56.2163 90.7114C47.2899 98.1543 37.7191 91.8381 34.5618 87.3736C34.1852 88.8233 34.1265 90.338 34.3894 91.8197C34.6523 93.3014 35.2309 94.717 36.0879 95.9749C36.9449 97.2328 38.0611 98.3049 39.3642 99.1218C40.6673 99.9388 42.1283 100.482 43.6526 100.717C45.1768 100.952 46.7304 100.873 48.2127 100.486C49.695 100.098 51.0729 99.4104 52.2573 98.4671C53.4416 97.5239 54.406 96.3461 55.088 95.0101C55.77 93.674 56.1544 92.2095 56.2163 90.7114Z" fill="url(#paint0_radial_0_445)"/>
<g style="mix-blend-mode:soft-light">
<path d="M49.7834 81.9662C51.2234 82.7695 52.452 83.8915 53.3683 85.2401" stroke="#FFF3D5" stroke-width="0.91" stroke-miterlimit="10" stroke-linecap="round"/>
</g>
<g style="mix-blend-mode:soft-light">
<path d="M37.4674 85.445C38.5437 83.723 40.1342 82.3659 42.0299 81.5521" stroke="#FFF3D5" stroke-width="0.91" stroke-miterlimit="10" stroke-linecap="round"/>
</g>
<path d="M41.1159 28.8566L22.179 68.3552C21.8919 68.954 22.1607 69.6729 22.7794 69.9608L47.3239 81.3816C47.9426 81.6695 48.6769 81.4174 48.9641 80.8185L67.9009 41.32C68.1881 40.7211 67.9193 40.0022 67.3005 39.7143L42.7561 28.2935C42.1374 28.0056 41.403 28.2578 41.1159 28.8566Z" fill="#168457"/>
<path d="M48.0843 30.774L28.1077 72.4412L34.4737 75.4034L54.4504 33.7361L48.0843 30.774Z" fill="#0D3A51"/>
<path d="M52.0814 58.2541L44.0988 74.9042L46.6649 76.0982L54.6475 59.4482L52.0814 58.2541Z" fill="#0D3A51"/>
<path d="M59.5967 39.6954L54.9483 49.4579L57.5229 50.648L62.1713 40.8854L59.5967 39.6954Z" fill="#0D3A51"/>
<path d="M26.3639 39.7804C30.5666 37.5496 32.0705 32.3973 29.723 28.2723C27.3755 24.1473 22.0656 22.6118 17.8629 24.8426C13.6602 27.0735 12.1562 32.2258 14.5037 36.3508C16.8512 40.4758 22.1612 42.0113 26.3639 39.7804Z" fill="#E5B20E"/>
<path d="M27.6019 40.2639C31.8046 38.0331 33.3085 32.8807 30.961 28.7558C28.6135 24.6308 23.3036 23.0953 19.1009 25.3261C14.8982 27.5569 13.3942 32.7093 15.7417 36.8342C18.0892 40.9592 23.3992 42.4947 27.6019 40.2639Z" fill="#FFDE82"/>
<path d="M26.6537 38.5978C29.9189 36.8646 31.0873 32.8616 29.2635 29.6568C27.4397 26.452 23.3142 25.259 20.049 26.9922C16.7838 28.7254 15.6153 32.7284 17.4392 35.9332C19.263 39.138 23.3885 40.3309 26.6537 38.5978Z" stroke="#E5B20E" stroke-width="0.74" stroke-miterlimit="10"/>
<g style="mix-blend-mode:soft-light">
<path d="M16.5904 36.3837C16.5904 36.3837 14.1908 33.2255 16.4281 29.0724C18.3306 25.5394 21.5544 25.2201 23.2124 25.1082" stroke="#FFF3D5" stroke-width="0.65" stroke-miterlimit="10" stroke-linecap="round"/>
</g>
<path d="M81.7292 52.4303C87.147 49.5545 89.0858 42.9124 86.0596 37.5948C83.0334 32.2771 76.1881 30.2977 70.7702 33.1735C65.3524 36.0493 63.4136 42.6914 66.4399 48.009C69.4661 53.3266 76.3113 55.3061 81.7292 52.4303Z" fill="#E5B20E"/>
<path d="M80.0658 51.9912C85.4836 49.1154 87.4224 42.4732 84.3962 37.1556C81.37 31.838 74.5247 29.8585 69.1068 32.7344C63.689 35.6102 61.7502 42.2523 64.7765 47.5699C67.8027 52.8875 74.6479 54.867 80.0658 51.9912Z" fill="#FFDE82"/>
<path d="M78.8578 49.8018C83.0666 47.5678 84.5727 42.4081 82.2218 38.2772C79.8709 34.1463 74.5534 32.6086 70.3446 34.8426C66.1359 37.0766 64.6298 42.2364 66.9806 46.3673C69.3315 50.4981 74.6491 52.0358 78.8578 49.8018Z" stroke="#E5B20E" stroke-width="1.11" stroke-miterlimit="10"/>
<path style="mix-blend-mode:multiply" d="M87.463 42.2361C87.2856 39.5695 86.1094 37.046 84.158 35.1452C84.5281 41.713 78.8411 50.956 71.4565 52.832C71.8408 52.9485 72.2311 53.0444 72.6256 53.1193C74.3752 53.7224 76.2446 53.8978 78.0682 53.63C79.8918 53.3621 81.6133 52.6592 83.0801 51.5837C84.547 50.5081 85.7139 49.093 86.4775 47.4638C87.2411 45.8346 87.5778 44.0416 87.4577 42.2436L87.463 42.2361Z" fill="url(#paint1_radial_0_445)"/>
<g style="mix-blend-mode:soft-light">
<path d="M65.7345 47.0613C65.7345 47.0613 62.9444 42.4252 65.4043 37.8048C67.8642 33.1844 71.9552 32.647 74.1302 32.4933" stroke="#FFF3D5" stroke-width="0.78" stroke-miterlimit="10" stroke-linecap="round"/>
</g>
<defs>
<radialGradient id="paint0_radial_0_445" cx="0" cy="0" r="1" gradientUnits="userSpaceOnUse" gradientTransform="translate(42.8157 104.444) rotate(-27.9596) scale(17.3625 17.3115)">
<stop stop-color="#E5B20E"/>
<stop offset="1" stop-color="#E5B20E" stop-opacity="0"/>
</radialGradient>
<radialGradient id="paint1_radial_0_445" cx="0" cy="0" r="1" gradientUnits="userSpaceOnUse" gradientTransform="translate(90.7941 52.5068) rotate(-27.9596) scale(20.7277 20.6669)">
<stop stop-color="#FFC90D"/>
<stop offset="1" stop-color="#FFC90D" stop-opacity="0"/>
</radialGradient>
</defs>
</svg>
