<svg width="193" height="194" viewBox="0 0 193 194" fill="none" xmlns="http://www.w3.org/2000/svg">
<g opacity="0.7">
<path d="M80.7772 91.5537L90.4848 91.1175L91.8137 89.3262L80.516 90.0116L80.7772 91.5537Z" fill="#855CFF"/>
<path d="M91.1209 90.2544L90.484 91.1129L83.0441 91.4516L80.6917 90.7499L80.6287 90.7059L80.9032 89.9884L82.2272 89.9075L83.287 90.6478L91.1209 90.2544Z" fill="url(#paint0_radial_0_437)"/>
<path d="M109.411 111.555L106.757 102.484L108.086 100.693L111.001 111.306L109.411 111.555Z" fill="#855CFF"/>
<path d="M107.399 101.624L106.762 102.483L108.791 109.436L110.224 111.378L110.287 111.422L110.889 110.902L110.56 109.698L109.497 108.956L107.399 101.624Z" fill="url(#paint1_radial_0_437)"/>
<path d="M66.4319 79.8599L125.381 121.036C125.889 121.391 126.232 121.927 126.333 122.526C126.435 123.125 126.287 123.738 125.922 124.23L93.1724 168.372L30.3895 124.517L63.1388 80.3757C63.5038 79.8838 64.0558 79.5531 64.6733 79.4564C65.2909 79.3597 65.9235 79.5048 66.4319 79.8599Z" fill="#168457"/>
<path d="M120.846 125.126L91.3913 164.827L33.8553 124.637L63.3099 84.9366C63.7121 84.3945 64.3202 84.0299 65.0006 83.9229C65.681 83.8159 66.3782 83.9752 66.9389 84.3658L120.244 121.6C120.523 121.793 120.759 122.038 120.94 122.32C121.121 122.602 121.243 122.916 121.299 123.244C121.355 123.571 121.344 123.906 121.266 124.229C121.188 124.552 121.046 124.857 120.846 125.126Z" fill="#A385FF"/>
<path d="M120.846 125.126L116.456 131.043L58.9201 90.8534L63.3099 84.9366C63.7121 84.3945 64.3202 84.0299 65.0006 83.9229C65.681 83.8159 66.3782 83.9752 66.9389 84.3658L120.244 121.6C120.523 121.793 120.759 122.038 120.94 122.32C121.121 122.602 121.243 122.916 121.299 123.244C121.355 123.571 121.344 123.906 121.266 124.229C121.188 124.552 121.046 124.857 120.846 125.126Z" fill="url(#paint2_radial_0_437)"/>
<path d="M108.086 100.693L91.8137 89.3263L90.4847 91.1175L106.757 102.484L108.086 100.693Z" fill="#FFDE82"/>
<path d="M107.396 101.623L91.1237 90.2563L90.4848 91.1175L106.757 102.484L107.396 101.623Z" fill="url(#paint3_radial_0_437)"/>
<path style="mix-blend-mode:overlay" d="M201.057 63.8949L96.9147 -8.84943L36.7902 125.742L88.5945 161.928L201.057 63.8949Z" fill="url(#paint4_radial_0_437)"/>
<path style="mix-blend-mode:overlay" d="M106.608 7.96629L181.594 60.0187L85.6314 161.511L38.7751 129.108L106.608 7.96629Z" fill="url(#paint5_radial_0_437)"/>
<path d="M111.782 42.5732C112.793 43.28 113.731 44.0806 114.582 44.9635L110.643 48.5359C109.407 47.2581 107.927 46.2245 106.286 45.4925L106.142 45.4283L107.336 43.0799L108.338 40.6538L108.455 40.7034C109.625 41.2183 110.739 41.8447 111.782 42.5732ZM118.574 51.1833C119.474 53.4853 119.895 55.9358 119.815 58.3938L114.417 58.2159C114.473 56.4443 114.169 54.6784 113.52 53.0194L118.574 51.1833ZM101.113 39.0268L100.942 44.2618C99.1143 44.2006 97.2933 44.4898 95.5832 45.1128L93.6804 40.2074C96.0539 39.341 98.5816 38.9371 101.119 39.0188L101.113 39.0268ZM118.116 65.4908L118.095 65.52C117.568 66.65 116.927 67.7262 116.181 68.7329C115.455 69.7117 114.632 70.6187 113.723 71.441L110.027 67.6126C110.679 67.021 111.27 66.3692 111.791 65.6666C112.33 64.9405 112.793 64.1643 113.173 63.3495L113.211 63.2711L115.253 64.2509L118.116 65.4908ZM87.2783 44.0507L90.964 47.8643C89.6301 49.0721 88.5542 50.5223 87.797 52.133L87.7714 52.1675L87.7911 52.1409L82.8523 50.0107L82.8838 49.9683C83.9299 47.7289 85.4247 45.7141 87.2814 44.0409L87.2783 44.0507ZM105.416 70.398L107.326 75.3001C104.955 76.1684 102.43 76.5727 99.8946 76.4897L100.056 71.2562C101.892 71.3142 103.721 71.0191 105.436 70.3878L105.416 70.398ZM86.5715 57.3153C86.5141 59.0863 86.8196 60.8516 87.4703 62.5092L82.4196 64.3518C81.5182 62.0453 81.0975 59.5895 81.1816 57.1268L86.5715 57.3153ZM94.7856 70.0608L93.4711 72.8357L92.5598 74.8261L92.527 74.8031C90.2247 73.7863 88.1481 72.344 86.4138 70.5572L90.3504 66.9828C91.5927 68.2688 93.0809 69.3084 94.732 70.0434L94.7856 70.0608ZM93.4711 72.8357L93.6594 72.4361L93.4711 72.8357Z" fill="#168457"/>
<path d="M87.7988 52.1866L87.8244 52.1521C88.5816 50.5415 89.6575 49.0912 90.9914 47.8835L88.358 45.1509C86.6421 46.7012 85.2593 48.565 84.2886 50.6358L87.8185 52.1601L87.7988 52.1866Z" fill="#168457"/>
<path d="M100.946 44.2565L101.069 40.5207C98.7365 40.4462 96.4128 40.8141 94.2283 41.6039L95.5871 45.1075C97.2972 44.4845 99.1182 44.1954 100.946 44.2565Z" fill="#168457"/>
<path d="M106.156 45.4262L106.3 45.4903C107.941 46.2223 109.421 47.2559 110.657 48.5337L113.468 45.9835C111.856 44.3186 109.923 42.9767 107.779 42.034L107.35 43.0777L106.156 45.4262Z" fill="#168457"/>
<path d="M114.423 58.208L118.276 58.3327C118.346 56.0717 117.959 53.818 117.135 51.699L113.526 53.0115C114.174 54.6704 114.479 56.4364 114.423 58.208Z" fill="#168457"/>
<path d="M113.217 63.2631L113.179 63.3416C112.798 64.1564 112.335 64.9326 111.797 65.6587C111.275 66.3613 110.685 67.013 110.033 67.6047L112.671 70.3365C113.511 69.576 114.273 68.7375 114.944 67.833C115.635 66.907 116.23 65.9173 116.721 64.8781L115.262 64.2613L113.217 63.2631Z" fill="#168457"/>
<path d="M87.7988 52.1866L87.8244 52.1521C88.5816 50.5415 89.6575 49.0912 90.9914 47.8835L88.358 45.1509C86.6421 46.7012 85.2593 48.565 84.2886 50.6358L87.8185 52.1601L87.7988 52.1866Z" fill="url(#paint6_radial_0_437)"/>
<path d="M100.946 44.2565L101.069 40.5207C98.7365 40.4462 96.4128 40.8141 94.2283 41.6039L95.5871 45.1075C97.2972 44.4845 99.1182 44.1954 100.946 44.2565Z" fill="url(#paint7_radial_0_437)"/>
<path d="M106.156 45.4262L106.3 45.4903C107.941 46.2223 109.421 47.2559 110.657 48.5337L113.468 45.9835C111.856 44.3186 109.923 42.9767 107.779 42.034L107.35 43.0777L106.156 45.4262Z" fill="url(#paint8_radial_0_437)"/>
<path d="M114.423 58.208L118.276 58.3327C118.346 56.0717 117.959 53.818 117.135 51.699L113.526 53.0115C114.174 54.6704 114.479 56.4364 114.423 58.208Z" fill="url(#paint9_radial_0_437)"/>
<path d="M113.217 63.2631L113.179 63.3416C112.798 64.1564 112.335 64.9326 111.797 65.6587C111.275 66.3613 110.685 67.013 110.033 67.6047L112.671 70.3365C113.511 69.576 114.273 68.7375 114.944 67.833C115.635 66.907 116.23 65.9173 116.721 64.8781L115.262 64.2613L113.217 63.2631Z" fill="url(#paint10_radial_0_437)"/>
<path d="M90.8058 70.813C98.2636 76.0223 108.649 74.3955 114.003 67.1795C119.357 59.9635 117.651 49.8908 110.193 44.6815C102.735 39.4721 92.3496 41.0988 86.9959 48.3149C81.6423 55.5309 83.348 65.6036 90.8058 70.813Z" fill="#168457"/>
<path d="M93.0915 67.8275C98.8508 71.8504 106.871 70.5941 111.006 65.0215C115.14 59.4489 113.823 51.6701 108.064 47.6472C102.304 43.6242 94.2837 44.8805 90.1493 50.4532C86.0149 56.0258 87.3321 63.8045 93.0915 67.8275Z" fill="url(#paint11_radial_0_437)"/>
<path d="M93.5928 67.1518C98.9665 70.9053 106.45 69.7332 110.307 64.5337C114.165 59.3343 112.936 52.0764 107.562 48.3229C102.189 44.5693 94.7052 45.7415 90.8476 50.9409C86.99 56.1404 88.2191 63.3982 93.5928 67.1518Z" fill="#E0D6FF"/>
<path d="M99.4073 57.2579L100.78 57.6331L97.1559 67.5889L99.4073 57.2579Z" fill="url(#paint12_radial_0_437)"/>
<path d="M100.944 56.7502L100.365 58.0235L95.4838 55.177L100.944 56.7502Z" fill="url(#paint13_radial_0_437)"/>
<path d="M99.8373 57.5582L101.21 57.9334L97.5858 67.8892L99.8373 57.5582Z" fill="#168457"/>
<path d="M100.863 57.1119L100.24 58.3664L95.4634 55.3558L100.863 57.1119Z" fill="#168457"/>
<path d="M99.822 58.694C100.36 59.0701 101.11 58.9527 101.497 58.4317C101.883 57.9108 101.76 57.1835 101.222 56.8074C100.683 56.4313 99.9334 56.5488 99.5469 57.0698C99.1604 57.5908 99.2836 58.3179 99.822 58.694Z" fill="#202945"/>
<path d="M82.7283 57.1773L81.1844 57.1288C81.1055 59.5861 81.5294 62.0355 82.4314 64.3359L83.8732 63.8103C83.0474 61.6921 82.6584 59.4385 82.7283 57.1773Z" fill="#168457"/>
<path d="M87.5473 69.5225L86.4217 70.5466C88.156 72.3334 90.2326 73.7757 92.5349 74.7925L92.5677 74.8155L93.1942 73.4387C91.0653 72.5011 89.1456 71.1684 87.5438 69.516L87.5473 69.5225Z" fill="#168457"/>
<path d="M99.9523 74.9772L99.9064 76.4738C102.444 76.555 104.972 76.1479 107.343 75.2762L106.797 73.877C104.613 74.6742 102.287 75.048 99.9523 74.9772Z" fill="#168457"/>
<path d="M82.7283 57.1773L81.1844 57.1288C81.1055 59.5861 81.5294 62.0355 82.4314 64.3359L83.8732 63.8103C83.0474 61.6921 82.6584 59.4385 82.7283 57.1773Z" fill="url(#paint14_radial_0_437)"/>
<path d="M87.5473 69.5225L86.4217 70.5466C88.156 72.3334 90.2326 73.7757 92.5349 74.7925L92.5677 74.8155L93.1942 73.4387C91.0653 72.5011 89.1456 71.1684 87.5438 69.516L87.5473 69.5225Z" fill="url(#paint15_radial_0_437)"/>
<path d="M99.9523 74.9772L99.9064 76.4738C102.444 76.555 104.972 76.1479 107.343 75.2762L106.797 73.877C104.613 74.6742 102.287 75.048 99.9523 74.9772Z" fill="url(#paint16_radial_0_437)"/>
<path d="M106.591 49.5475L106.786 49.6833L106.086 50.5822L105.735 50.3373L106.089 49.8604L106.391 49.4033L106.593 49.5449L106.591 49.5475ZM101.805 47.7166L101.669 48.8291L101.252 48.7867L101.351 47.6494C101.492 47.6835 101.649 47.6965 101.805 47.7166ZM109.902 53.373L110.097 53.7944L109.021 54.2299C108.969 54.1046 108.911 53.9801 108.852 53.8582L109.902 53.373ZM96.4846 48.4258L96.9504 49.4792C96.8213 49.5299 96.6931 49.5851 96.5675 49.6422L96.0723 48.6285C96.1959 48.5459 96.3313 48.4756 96.4866 48.4231L96.4846 48.4258ZM110.885 58.5045C110.872 58.6564 110.859 58.8083 110.839 58.959L109.691 58.825C109.707 58.6914 109.72 58.5558 109.731 58.4229L110.885 58.5045ZM92.2446 51.619L93.1736 52.3002L92.9062 52.6606L91.945 52.0172L91.9626 51.9934C92.0118 51.9272 92.0531 51.8715 92.0964 51.8132C92.1396 51.7549 92.1966 51.678 92.2465 51.6164L92.2446 51.619ZM109.111 63.4003L109.087 63.4322C109.05 63.4825 109.007 63.5408 108.966 63.5964C108.924 63.6521 108.875 63.7183 108.83 63.7793L107.901 63.0981L108.135 62.7828L109.111 63.4003ZM104.529 65.7714L105.024 66.7851C104.883 66.8516 104.74 66.9163 104.593 66.9744L104.138 65.9332C104.272 65.8842 104.401 65.8312 104.527 65.774L104.529 65.7714ZM91.3722 56.6056C91.3562 56.7392 91.343 56.8747 91.3344 57.0095L90.159 56.9126C90.1699 56.7634 90.1848 56.6089 90.2052 56.4581L91.3722 56.6056ZM99.8321 66.6101L99.7451 67.7361C99.5911 67.7251 99.4316 67.7102 99.2761 67.6901L99.4113 66.5776C99.5566 66.5947 99.6965 66.6079 99.8356 66.6166L99.8321 66.6101ZM92.0547 61.1776C92.11 61.3047 92.1665 61.4247 92.2286 61.5485L91.1842 62.0258C91.1171 61.8865 91.0501 61.747 90.9897 61.6043L92.0547 61.1776ZM95.3394 65.061L94.6831 65.9904L94.6584 65.9732C94.5352 65.8871 94.4175 65.8049 94.2997 65.7226L95.0018 64.8211C95.1058 64.8938 95.2126 64.9684 95.3195 65.043L95.3394 65.061Z" fill="#168457"/>
<path style="mix-blend-mode:overlay" d="M56.8164 141.71L54.9652 140.416L106.586 60.8686L113.074 65.4001L56.8164 141.71Z" fill="url(#paint17_radial_0_437)"/>
<path style="mix-blend-mode:overlay" d="M51.6488 138.1L48.5877 135.893L104.478 29.4416L111.599 33.675L51.6488 138.1Z" fill="url(#paint18_radial_0_437)"/>
<path d="M26.121 118.289L100.061 169.937L91.226 181.844C90.8611 182.336 90.3091 182.667 89.6915 182.764C89.074 182.861 88.4414 182.715 87.933 182.36L17.8382 133.399C17.3298 133.044 16.9872 132.508 16.8858 131.909C16.7844 131.31 16.9324 130.697 17.2974 130.205L26.132 118.297L26.121 118.289Z" fill="#168457"/>
<path d="M93.4406 109.942L94.7559 105.047C94.7762 104.979 94.7823 104.907 94.7738 104.836C94.7653 104.765 94.7424 104.696 94.7065 104.634C94.6705 104.571 94.6223 104.516 94.5644 104.472C94.5065 104.427 94.4402 104.394 94.3692 104.375L94.079 104.301C94.0085 104.283 93.9423 104.252 93.8842 104.21C93.826 104.168 93.7771 104.114 93.7403 104.053C93.7035 103.993 93.6795 103.925 93.6697 103.855C93.6599 103.785 93.6645 103.714 93.6832 103.646L93.8592 102.989C93.8777 102.92 93.8821 102.849 93.8721 102.779C93.8621 102.709 93.8378 102.642 93.8008 102.58C93.7637 102.519 93.7146 102.466 93.6562 102.424C93.5979 102.381 93.5314 102.35 93.4607 102.332L53.7123 92.196C53.642 92.1777 53.5687 92.173 53.4967 92.1823C53.4246 92.1916 53.3552 92.2148 53.2925 92.2503C53.2298 92.2858 53.175 92.3331 53.1313 92.3893C53.0876 92.4456 53.0559 92.5097 53.0381 92.578L52.8621 93.2355C52.8421 93.3042 52.8084 93.3684 52.7628 93.4244C52.7171 93.4804 52.6605 93.5271 52.5962 93.5617C52.5318 93.5964 52.461 93.6184 52.3878 93.6264C52.3145 93.6345 52.2403 93.6284 52.1695 93.6086L51.8969 93.5388C51.8261 93.519 51.7519 93.513 51.6787 93.521C51.6054 93.5291 51.5347 93.551 51.4703 93.5857C51.4059 93.6203 51.3493 93.6671 51.3036 93.723C51.258 93.779 51.2243 93.8432 51.2043 93.912L49.8917 98.8082C49.8549 98.9457 49.8756 99.092 49.9493 99.215C50.0231 99.3381 50.1439 99.4281 50.2856 99.4654L50.5629 99.5344C50.6332 99.5525 50.6992 99.5839 50.7571 99.6268C50.815 99.6696 50.8637 99.7231 50.9003 99.7841C50.9369 99.8452 50.9607 99.9126 50.9704 99.9826C50.98 100.052 50.9753 100.124 50.9566 100.192L46.2723 117.629C46.2529 117.698 46.2194 117.763 46.174 117.819C46.1286 117.875 46.072 117.921 46.0077 117.956C45.9434 117.99 45.8726 118.012 45.7994 118.019C45.7262 118.027 45.6523 118.02 45.5817 118L45.3071 117.933C45.2366 117.912 45.1625 117.906 45.0894 117.913C45.0162 117.921 44.9454 117.943 44.8811 117.977C44.8168 118.012 44.7602 118.058 44.7148 118.114C44.6694 118.17 44.6359 118.235 44.6165 118.303L43.5104 122.422C43.4735 122.56 43.4945 122.706 43.5687 122.829C43.6429 122.952 43.7643 123.041 43.9062 123.077L44.7184 123.282L48.6912 124.299L81.6302 132.737L85.5872 133.747L86.4125 133.957C86.483 133.975 86.5565 133.98 86.6288 133.97C86.7011 133.96 86.7706 133.937 86.8335 133.901C86.8963 133.866 86.9512 133.818 86.995 133.762C87.0388 133.705 87.0706 133.641 87.0886 133.572L88.1955 129.458C88.214 129.389 88.2184 129.318 88.2084 129.248C88.1983 129.178 88.1741 129.11 88.1371 129.049C88.1 128.988 88.0509 128.935 87.9925 128.892C87.9342 128.85 87.8677 128.819 87.797 128.801L87.5068 128.727C87.3651 128.69 87.2443 128.6 87.1706 128.477C87.0968 128.354 87.0761 128.208 87.113 128.07L91.7946 110.63C91.8145 110.562 91.8481 110.498 91.8936 110.442C91.9391 110.386 91.9956 110.34 92.0599 110.305C92.1241 110.271 92.1947 110.249 92.2677 110.241C92.3407 110.234 92.4146 110.24 92.4852 110.26L92.7754 110.334C92.9174 110.365 93.0662 110.342 93.1904 110.269C93.3146 110.195 93.4043 110.078 93.4406 109.942Z" fill="#65D9D4"/>
<path d="M76.1105 108.688L65.694 106.032L60.0016 127.213L70.4182 129.869L76.1105 108.688Z" fill="#0FB5AC"/>
<path d="M50.7303 99.5944L61.6623 102.382C62.0516 102.481 62.3848 102.726 62.5884 103.063C62.792 103.4 62.8495 103.801 62.7481 104.178L58.5439 119.822C58.4425 120.2 58.1906 120.522 57.8436 120.718C57.4966 120.915 57.083 120.969 56.6936 120.87L45.7616 118.083L50.7303 99.5944Z" fill="#DCF5F3"/>
<path d="M81.4451 107.431L92.377 110.218L87.4118 128.694L76.4798 125.906C76.0904 125.807 75.7573 125.562 75.5537 125.225C75.35 124.888 75.2926 124.487 75.394 124.11L79.5948 108.479C79.6962 108.101 79.948 107.779 80.295 107.583C80.642 107.386 81.0557 107.331 81.4451 107.431Z" fill="#DCF5F3"/>
<path d="M95.9981 100.521L52.4659 89.4216L50.3697 97.2215L93.9019 108.321L95.9981 100.521Z" fill="url(#paint19_radial_0_437)"/>
<path d="M101.833 107.384L43.8618 92.6008L54.1234 86.8672L95.7717 97.4858L101.833 107.384Z" fill="#0D3A51"/>
<path d="M77.0776 107.28L65.5519 104.341L65.1348 105.893L76.6606 108.832L77.0776 107.28Z" fill="#0FB5AC"/>
<path d="M62.0887 106.527L62.683 104.319C62.7938 103.906 62.7306 103.466 62.5073 103.097C62.2841 102.727 61.919 102.458 61.4923 102.349L59.1381 101.751L47.1095 112.92L45.7261 118.069L49.178 118.947L62.0887 106.527Z" fill="white"/>
<path d="M90.739 116.217L92.3529 110.22L89.499 109.493L76.447 120.109L75.4069 123.976C75.2962 124.39 75.3594 124.83 75.5826 125.199C75.8059 125.569 76.171 125.837 76.5978 125.947L78.4725 126.424L90.739 116.217Z" fill="white"/>
<path d="M63.8659 117.464C64.2621 117.741 64.8139 117.654 65.0984 117.271C65.3828 116.887 65.2922 116.352 64.896 116.075C64.4997 115.798 63.9479 115.885 63.6634 116.268C63.379 116.652 63.4696 117.187 63.8659 117.464Z" fill="#0E998F"/>
<path d="M51.201 118.159L59.8138 109.918L59.5172 111.019L52.2634 118.431L51.201 118.159Z" fill="white"/>
<path d="M80.0566 126.239L89.3157 118.163L89.021 119.261L81.1191 126.51L80.0566 126.239Z" fill="white"/>
<path d="M76.1087 108.692L65.6921 106.036L65.2946 107.515L75.7112 110.171L76.1087 108.692Z" fill="url(#paint20_radial_0_437)"/>
<path d="M38.6765 121.154L32.9028 128.936L36.6053 131.522L42.379 123.74L38.6765 121.154Z" fill="#FFDE82"/>
<path d="M89.6346 156.748L83.8609 164.531L87.5634 167.117L93.3371 159.335L89.6346 156.748Z" fill="#FFDE82"/>
<path d="M21.4383 124.601L17.4201 130.017C17.0176 130.56 16.8543 131.235 16.9661 131.896C17.078 132.557 17.4558 133.148 18.0166 133.539L87.7307 182.235C88.2914 182.627 88.989 182.787 89.67 182.68C90.3511 182.574 90.9599 182.209 91.3624 181.666L95.3806 176.25L21.4383 124.601Z" fill="url(#paint21_radial_0_437)"/>
<path d="M20.3669 126.045L94.2956 177.685" stroke="#C2ADFF" stroke-width="2.81" stroke-miterlimit="10" stroke-linecap="round"/>
<path d="M80.628 90.7013L80.691 90.7453L80.642 90.7553L80.628 90.7013Z" fill="#168457"/>
<path d="M38.9781 128.324L35.2756 125.738L32.9028 128.936L36.6053 131.522L38.9781 128.324Z" fill="url(#paint22_radial_0_437)"/>
<path d="M38.9781 128.324L35.2756 125.738L32.9028 128.936L36.6053 131.522L38.9781 128.324Z" fill="url(#paint23_radial_0_437)"/>
<path d="M89.9307 163.915L86.2282 161.329L83.8554 164.527L87.5579 167.113L89.9307 163.915Z" fill="url(#paint24_radial_0_437)"/>
<path style="mix-blend-mode:overlay" d="M77.4104 154.115L80.023 155.94L142.86 93.9179L132.196 90.4597L77.4104 154.115Z" fill="url(#paint25_radial_0_437)"/>
<path d="M147.248 91.4837C129.075 94.3301 128.236 89.3751 110.061 92.2243L114.232 116.813C132.408 113.969 133.246 118.919 151.422 116.074L147.248 91.4837Z" fill="#EDF9F8"/>
<path d="M143.928 95.0621L145.619 105.061" stroke="#168457" stroke-width="1.75" stroke-miterlimit="10"/>
<path d="M140.039 95.8094L143.097 113.863" stroke="#168457" stroke-width="1.75" stroke-miterlimit="10"/>
<path d="M136.017 95.7719L139.075 113.826" stroke="#168457" stroke-width="1.75" stroke-miterlimit="10"/>
<path d="M131.938 95.3923L134.998 113.448" stroke="#168457" stroke-width="1.75" stroke-miterlimit="10"/>
<path d="M127.808 94.7042L130.868 112.76" stroke="#168457" stroke-width="1.75" stroke-miterlimit="10"/>
<path d="M123.76 94.4953L126.815 112.552" stroke="#168457" stroke-width="1.75" stroke-miterlimit="10"/>
<path d="M119.741 94.4761L122.798 112.53" stroke="#168457" stroke-width="1.75" stroke-miterlimit="10"/>
<path d="M115.753 94.623L118.81 112.677" stroke="#168457" stroke-width="1.75" stroke-miterlimit="10"/>
<path style="mix-blend-mode:multiply" d="M148.571 87.4031C130.398 90.2496 129.559 85.2946 111.384 88.1437L115.547 112.727C133.72 109.881 134.561 114.833 152.737 111.988L148.571 87.4031Z" fill="url(#paint26_radial_0_437)"/>
<path d="M150.128 85.3045C131.953 88.1536 131.114 83.1987 112.941 86.0452L117.104 110.628C135.277 107.782 136.116 112.737 154.292 109.892L150.128 85.3045Z" fill="#EDF9F8"/>
<path d="M146.806 88.8856L148.499 98.8823" stroke="#168457" stroke-width="1.75" stroke-miterlimit="10"/>
<path d="M142.917 89.6329L145.974 107.687" stroke="#168457" stroke-width="1.75" stroke-miterlimit="10"/>
<path d="M138.897 89.5928L141.954 107.647" stroke="#168457" stroke-width="1.75" stroke-miterlimit="10"/>
<path d="M134.817 89.2131L137.875 107.267" stroke="#168457" stroke-width="1.75" stroke-miterlimit="10"/>
<path d="M130.686 88.5278L133.743 106.582" stroke="#168457" stroke-width="1.75" stroke-miterlimit="10"/>
<path d="M126.637 88.3188L129.695 106.373" stroke="#168457" stroke-width="1.75" stroke-miterlimit="10"/>
<path d="M122.619 88.2996L125.676 106.354" stroke="#168457" stroke-width="1.75" stroke-miterlimit="10"/>
<path d="M118.628 88.4446L121.688 106.501" stroke="#168457" stroke-width="1.75" stroke-miterlimit="10"/>
<path d="M169.25 46.3159L123.001 37.0855L130.507 34.87L163.239 41.4052L169.25 46.3159Z" fill="#202945"/>
<path d="M137.56 15.9611L158.987 20.2363C160.092 20.455 161.142 20.8825 162.078 21.4945C163.013 22.1065 163.815 22.8908 164.439 23.8028C165.062 24.7148 165.494 25.7364 165.71 26.8093C165.926 27.8822 165.922 28.9853 165.698 30.0556L164.047 37.9297L131.302 31.3964L134.071 18.1928C134.227 17.4466 134.683 16.7919 135.338 16.3729C135.994 15.9539 136.794 15.8049 137.564 15.9586L137.56 15.9611Z" fill="#202945"/>
<path d="M164.112 37.5444L131.38 31.0136L130.572 34.8675L163.304 41.3982L164.112 37.5444Z" fill="#E0D6FF"/>
<path d="M165.666 43.3857L163.239 41.4053L130.507 34.8701L127.483 35.7629L165.666 43.3857Z" fill="url(#paint27_radial_0_437)"/>
<path d="M158.109 20.0764L137.779 16.0176C137.361 15.934 136.93 15.931 136.511 16.0089C136.092 16.0867 135.694 16.2439 135.338 16.4715C134.982 16.699 134.677 16.9924 134.438 17.3349C134.2 17.6774 134.034 18.0623 133.949 18.4675L133.094 22.5286L165.642 29.0272C165.641 26.9247 164.891 24.8849 163.518 23.2537C162.146 21.6224 160.234 20.4999 158.109 20.0764Z" fill="url(#paint28_radial_0_437)"/>
<path d="M148.868 65.2471L143.083 58.0637C142.783 57.6919 142.23 57.625 141.848 57.9142L126.289 69.674C125.906 69.9633 125.838 70.4992 126.138 70.871L131.923 78.0544C132.222 78.4262 132.775 78.4931 133.158 78.2038L148.717 66.444C149.099 66.1548 149.167 65.6189 148.868 65.2471Z" fill="#202945"/>
<path d="M148.293 66.2299L133.037 77.7596C132.903 77.86 132.733 77.9048 132.564 77.8843C132.396 77.8638 132.242 77.7795 132.137 77.65L126.579 70.7504C126.475 70.6196 126.428 70.454 126.449 70.29C126.47 70.126 126.557 69.977 126.692 69.8757L141.945 58.3441C142.08 58.2439 142.251 58.1994 142.42 58.2203C142.589 58.2412 142.743 58.3257 142.848 58.4556L143.778 59.612C143.827 59.6784 143.848 59.7601 143.838 59.8409C143.828 59.9217 143.787 59.9959 143.724 60.049L143.525 60.1996C143.461 60.2523 143.42 60.326 143.41 60.4064C143.399 60.4868 143.42 60.5681 143.468 60.6347L146.373 64.2451C146.428 64.3068 146.505 64.3466 146.588 64.3564C146.672 64.3663 146.756 64.3456 146.824 64.2985L147.023 64.1479C147.092 64.1008 147.176 64.0801 147.259 64.09C147.343 64.0999 147.419 64.1397 147.474 64.2014L148.406 65.3552C148.417 65.3682 148.426 65.3826 148.433 65.3979C148.516 65.5213 148.552 65.6693 148.534 65.8157C148.516 65.9622 148.445 66.0975 148.334 66.1978C148.321 66.2094 148.308 66.2201 148.293 66.2299Z" fill="#DCF5F3"/>
<path d="M147.112 67.1222L139.759 72.6789L126.878 71.1204L126.579 70.7504C126.475 70.6196 126.428 70.454 126.449 70.29C126.47 70.126 126.557 69.977 126.692 69.8757L132.647 65.374L147.112 67.1222Z" fill="white"/>
<path d="M138.573 73.5765L136.719 74.9769L129.254 74.0712L127.808 72.2722L138.573 73.5765Z" fill="white"/>
<path d="M148.334 66.1978L133.875 64.4417L134.807 63.7453L148.442 65.3964C148.525 65.521 148.56 65.6699 148.54 65.8167C148.52 65.9635 148.447 66.0987 148.334 66.1978Z" fill="white"/>
<path style="mix-blend-mode:overlay" d="M92.9624 126.737L94.8136 128.03L140.472 73.909L132.875 73.2817L92.9624 126.737Z" fill="url(#paint29_radial_0_437)"/>
</g>
<defs>
<radialGradient id="paint0_radial_0_437" cx="0" cy="0" r="1" gradientUnits="userSpaceOnUse" gradientTransform="translate(84.8707 92.2287) rotate(34.9346) scale(9.23293 9.11568)">
<stop stop-color="#412BC9"/>
<stop offset="1" stop-color="#412BC9" stop-opacity="0"/>
</radialGradient>
<radialGradient id="paint1_radial_0_437" cx="0" cy="0" r="1" gradientUnits="userSpaceOnUse" gradientTransform="translate(107.426 108.02) rotate(-145.065) scale(9.20288 9.086)">
<stop stop-color="#412BC9"/>
<stop offset="1" stop-color="#412BC9" stop-opacity="0"/>
</radialGradient>
<radialGradient id="paint2_radial_0_437" cx="0" cy="0" r="1" gradientUnits="userSpaceOnUse" gradientTransform="translate(101.454 92.6405) rotate(34.9346) scale(47.1468 46.5479)">
<stop stop-color="#412BC9"/>
<stop offset="1" stop-color="#412BC9" stop-opacity="0"/>
</radialGradient>
<radialGradient id="paint3_radial_0_437" cx="0" cy="0" r="1" gradientUnits="userSpaceOnUse" gradientTransform="translate(98.0619 96.9935) rotate(34.9346) scale(14.7814 14.5936)">
<stop stop-color="#E5B20E"/>
<stop offset="1" stop-color="#E5B20E" stop-opacity="0"/>
</radialGradient>
<radialGradient id="paint4_radial_0_437" cx="0" cy="0" r="1" gradientUnits="userSpaceOnUse" gradientTransform="translate(55.0706 156.857) rotate(34.9346) scale(133.23 156.529)">
<stop stop-color="#E0D6FF"/>
<stop offset="1" stop-color="#C2ADFF" stop-opacity="0"/>
</radialGradient>
<radialGradient id="paint5_radial_0_437" cx="0" cy="0" r="1" gradientUnits="userSpaceOnUse" gradientTransform="translate(68.626 150.449) rotate(34.9346) scale(115.786 114.315)">
<stop stop-color="white"/>
<stop offset="1" stop-color="white" stop-opacity="0"/>
</radialGradient>
<radialGradient id="paint6_radial_0_437" cx="0" cy="0" r="1" gradientUnits="userSpaceOnUse" gradientTransform="translate(104.658 52.1476) rotate(-145.065) scale(22.1937 21.9118)">
<stop offset="0.01" stop-color="#412BC9"/>
<stop offset="1" stop-color="#412BC9" stop-opacity="0"/>
</radialGradient>
<radialGradient id="paint7_radial_0_437" cx="0" cy="0" r="1" gradientUnits="userSpaceOnUse" gradientTransform="translate(104.658 52.1476) rotate(-145.065) scale(22.1938 21.9118)">
<stop offset="0.01" stop-color="#412BC9"/>
<stop offset="1" stop-color="#412BC9" stop-opacity="0"/>
</radialGradient>
<radialGradient id="paint8_radial_0_437" cx="0" cy="0" r="1" gradientUnits="userSpaceOnUse" gradientTransform="translate(104.658 52.1477) rotate(-145.065) scale(22.1938 21.9119)">
<stop offset="0.01" stop-color="#412BC9"/>
<stop offset="1" stop-color="#412BC9" stop-opacity="0"/>
</radialGradient>
<radialGradient id="paint9_radial_0_437" cx="0" cy="0" r="1" gradientUnits="userSpaceOnUse" gradientTransform="translate(104.658 52.1476) rotate(-145.065) scale(22.1938 21.912)">
<stop offset="0.01" stop-color="#412BC9"/>
<stop offset="1" stop-color="#412BC9" stop-opacity="0"/>
</radialGradient>
<radialGradient id="paint10_radial_0_437" cx="0" cy="0" r="1" gradientUnits="userSpaceOnUse" gradientTransform="translate(104.658 52.1477) rotate(-145.065) scale(22.1938 21.9117)">
<stop offset="0.01" stop-color="#412BC9"/>
<stop offset="1" stop-color="#412BC9" stop-opacity="0"/>
</radialGradient>
<radialGradient id="paint11_radial_0_437" cx="0" cy="0" r="1" gradientUnits="userSpaceOnUse" gradientTransform="translate(97.6716 61.4804) rotate(-145.065) scale(23.5333 23.2344)">
<stop stop-color="#412BC9"/>
<stop offset="0.24" stop-color="#412BC9" stop-opacity="0.73"/>
<stop offset="0.61" stop-color="#412BC9" stop-opacity="0.34"/>
<stop offset="0.87" stop-color="#412BC9" stop-opacity="0.09"/>
<stop offset="1" stop-color="#412BC9" stop-opacity="0"/>
</radialGradient>
<radialGradient id="paint12_radial_0_437" cx="0" cy="0" r="1" gradientUnits="userSpaceOnUse" gradientTransform="translate(101.634 60.2252) rotate(-145.065) scale(7.55606 7.46001)">
<stop stop-color="#512EE5"/>
<stop offset="1" stop-color="#512EE5" stop-opacity="0"/>
</radialGradient>
<radialGradient id="paint13_radial_0_437" cx="0" cy="0" r="1" gradientUnits="userSpaceOnUse" gradientTransform="translate(111.673 47.0427) rotate(-147.324) scale(4.9198 4.84661)">
<stop stop-color="#512EE5"/>
<stop offset="1" stop-color="#512EE5" stop-opacity="0"/>
</radialGradient>
<radialGradient id="paint14_radial_0_437" cx="0" cy="0" r="1" gradientUnits="userSpaceOnUse" gradientTransform="translate(86.9168 77.2205) rotate(-145.065) scale(25.0499 24.7317)">
<stop stop-color="#855CFF"/>
<stop offset="1" stop-color="#E0D6FF" stop-opacity="0"/>
</radialGradient>
<radialGradient id="paint15_radial_0_437" cx="0" cy="0" r="1" gradientUnits="userSpaceOnUse" gradientTransform="translate(86.9168 77.2205) rotate(-145.065) scale(25.0499 24.7319)">
<stop stop-color="#855CFF"/>
<stop offset="1" stop-color="#E0D6FF" stop-opacity="0"/>
</radialGradient>
<radialGradient id="paint16_radial_0_437" cx="0" cy="0" r="1" gradientUnits="userSpaceOnUse" gradientTransform="translate(86.9169 77.2203) rotate(-145.065) scale(25.0499 24.7315)">
<stop stop-color="#855CFF"/>
<stop offset="1" stop-color="#E0D6FF" stop-opacity="0"/>
</radialGradient>
<radialGradient id="paint17_radial_0_437" cx="0" cy="0" r="1" gradientUnits="userSpaceOnUse" gradientTransform="translate(68.6311 123.93) rotate(34.9346) scale(70.2892 69.3963)">
<stop stop-color="white"/>
<stop offset="1" stop-color="white" stop-opacity="0"/>
</radialGradient>
<radialGradient id="paint18_radial_0_437" cx="0" cy="0" r="1" gradientUnits="userSpaceOnUse" gradientTransform="translate(65.2791 114.673) rotate(34.9346) scale(89.3731 88.2377)">
<stop stop-color="white"/>
<stop offset="1" stop-color="white" stop-opacity="0"/>
</radialGradient>
<radialGradient id="paint19_radial_0_437" cx="0" cy="0" r="1" gradientUnits="userSpaceOnUse" gradientTransform="translate(72.7377 100.532) rotate(14.3045) scale(29.6706 8.07483)">
<stop stop-color="#0E998F"/>
<stop offset="1" stop-color="#0E998F" stop-opacity="0"/>
</radialGradient>
<radialGradient id="paint20_radial_0_437" cx="0" cy="0" r="1" gradientUnits="userSpaceOnUse" gradientTransform="translate(69.5961 111.938) rotate(14.3045) scale(8.29888 2.74259)">
<stop stop-color="#0FB5AC"/>
<stop offset="1" stop-color="#0FB5AC" stop-opacity="0"/>
</radialGradient>
<radialGradient id="paint21_radial_0_437" cx="0" cy="0" r="1" gradientUnits="userSpaceOnUse" gradientTransform="translate(65.4379 142.132) rotate(34.9346) scale(63.4748 62.6682)">
<stop stop-color="#412BC9"/>
<stop offset="0.24" stop-color="#412BC9" stop-opacity="0.73"/>
<stop offset="0.61" stop-color="#412BC9" stop-opacity="0.34"/>
<stop offset="0.87" stop-color="#412BC9" stop-opacity="0.09"/>
<stop offset="1" stop-color="#412BC9" stop-opacity="0"/>
</radialGradient>
<radialGradient id="paint22_radial_0_437" cx="0" cy="0" r="1" gradientUnits="userSpaceOnUse" gradientTransform="translate(36.8837 126.165) rotate(34.9346) scale(4.06864 4.01698)">
<stop stop-color="#E5B20E"/>
<stop offset="1" stop-color="#E5B20E" stop-opacity="0"/>
</radialGradient>
<radialGradient id="paint23_radial_0_437" cx="0" cy="0" r="1" gradientUnits="userSpaceOnUse" gradientTransform="translate(37.6743 126.557) rotate(34.9346) scale(5.36139 5.29331)">
<stop stop-color="#E5B20E"/>
<stop offset="1" stop-color="#E5B20E" stop-opacity="0"/>
</radialGradient>
<radialGradient id="paint24_radial_0_437" cx="0" cy="0" r="1" gradientUnits="userSpaceOnUse" gradientTransform="translate(88.6269 162.147) rotate(34.9346) scale(5.36139 5.29331)">
<stop stop-color="#E5B20E"/>
<stop offset="1" stop-color="#E5B20E" stop-opacity="0"/>
</radialGradient>
<radialGradient id="paint25_radial_0_437" cx="0" cy="0" r="1" gradientUnits="userSpaceOnUse" gradientTransform="translate(105.063 130.41) rotate(39.7942) scale(31.7014 33.3431)">
<stop stop-color="white"/>
<stop offset="1" stop-color="white" stop-opacity="0"/>
</radialGradient>
<radialGradient id="paint26_radial_0_437" cx="0" cy="0" r="1" gradientUnits="userSpaceOnUse" gradientTransform="translate(116.134 114.626) rotate(34.9346) scale(35.5789 35.1269)">
<stop stop-color="#B8ECE9"/>
<stop offset="1" stop-color="#B8ECE9" stop-opacity="0"/>
</radialGradient>
<radialGradient id="paint27_radial_0_437" cx="0" cy="0" r="1" gradientUnits="userSpaceOnUse" gradientTransform="translate(147.708 29.6963) rotate(11.2934) scale(24.1804 23.4743)">
<stop stop-color="#070A0F"/>
<stop offset="1" stop-color="#6633FF" stop-opacity="0"/>
</radialGradient>
<radialGradient id="paint28_radial_0_437" cx="0" cy="0" r="1" gradientUnits="userSpaceOnUse" gradientTransform="translate(145.294 8.79126) rotate(11.2933) scale(22.8734 22.2055)">
<stop stop-color="#484E66"/>
<stop offset="1" stop-color="#484E66" stop-opacity="0"/>
</radialGradient>
<radialGradient id="paint29_radial_0_437" cx="0" cy="0" r="1" gradientUnits="userSpaceOnUse" gradientTransform="translate(112.838 103.668) rotate(34.9346) scale(25.3605 33.8018)">
<stop stop-color="white"/>
<stop offset="1" stop-color="white" stop-opacity="0"/>
</radialGradient>
</defs>
</svg>
