<svg width="127" height="136" viewBox="0 0 127 136" fill="none" xmlns="http://www.w3.org/2000/svg">
<g opacity="0.7">
<path d="M96.6229 29.3558V21.2907C96.6229 21.1782 96.6001 21.0667 96.5559 20.9627C96.5117 20.8587 96.4469 20.7643 96.3653 20.6847C96.2836 20.6051 96.1867 20.5419 96.0799 20.4989C95.9732 20.4558 95.8589 20.4336 95.7434 20.4336H95.2731C95.1573 20.4344 95.0426 20.4128 94.9356 20.37C94.8285 20.3272 94.7312 20.2641 94.6494 20.1843C94.5675 20.1046 94.5028 20.0098 94.4589 19.9054C94.415 19.8011 94.3928 19.6893 94.3936 19.5765V18.4992C94.3944 18.3864 94.3722 18.2746 94.3283 18.1702C94.2844 18.0659 94.2196 17.9711 94.1378 17.8914C94.056 17.8116 93.9587 17.7485 93.8516 17.7057C93.7446 17.6629 93.6298 17.6413 93.5141 17.6421H28.4375C28.3223 17.6421 28.2083 17.6643 28.1019 17.7074C27.9955 17.7506 27.899 17.8138 27.8178 17.8935C27.7366 17.9731 27.6724 18.0677 27.6289 18.1716C27.5854 18.2756 27.5634 18.3869 27.5642 18.4992V19.5765C27.5642 19.8038 27.4715 20.0218 27.3066 20.1826C27.1416 20.3433 26.9179 20.4336 26.6847 20.4336H26.2327C25.9999 20.4352 25.7772 20.526 25.6126 20.6864C25.448 20.8468 25.3548 21.0639 25.3532 21.2907V29.3558C25.3548 29.5827 25.448 29.7998 25.6126 29.9602C25.7772 30.1206 25.9999 30.2114 26.2327 30.213H26.6847C26.9169 30.2129 27.1396 30.3024 27.3044 30.4619C27.4692 30.6213 27.5625 30.8378 27.5642 31.0641V59.7712C27.5626 59.998 27.4694 60.2151 27.3048 60.3755C27.1402 60.5359 26.9174 60.6267 26.6847 60.6283H26.2327C26.0005 60.6283 25.7777 60.7178 25.613 60.8772C25.4482 61.0367 25.3548 61.2532 25.3532 61.4794V68.2589C25.3532 68.4862 25.4459 68.7042 25.6108 68.865C25.7757 69.0257 25.9995 69.116 26.2327 69.116H95.7434C95.8591 69.1168 95.9738 69.0952 96.0809 69.0524C96.188 69.0096 96.2852 68.9465 96.3671 68.8667C96.4489 68.787 96.5136 68.6922 96.5575 68.5878C96.6015 68.4835 96.6237 68.3717 96.6229 68.2589V61.4914C96.6229 61.3791 96.6001 61.2679 96.5558 61.1642C96.5115 61.0606 96.4466 60.9665 96.3649 60.8874C96.2831 60.8083 96.1861 60.7457 96.0795 60.7033C95.9728 60.6608 95.8586 60.6394 95.7434 60.6402H95.2731C95.1545 60.6434 95.0365 60.6232 94.9261 60.5808C94.8158 60.5385 94.7154 60.4748 94.6309 60.3936C94.5465 60.3124 94.4797 60.2154 94.4348 60.1085C94.3898 60.0015 94.3675 59.8868 94.3692 59.7712V31.0641C94.3691 30.9518 94.3919 30.8407 94.4362 30.737C94.4805 30.6333 94.5454 30.5392 94.6271 30.4601C94.7089 30.381 94.8059 30.3185 94.9126 30.276C95.0192 30.2336 95.1334 30.2122 95.2486 30.213H95.7189C95.8365 30.2161 95.9535 30.1963 96.063 30.1547C96.1726 30.113 96.2724 30.0504 96.3567 29.9705C96.441 29.8906 96.5079 29.795 96.5536 29.6894C96.5994 29.5839 96.6229 29.4704 96.6229 29.3558Z" fill="#65D9D4"/>
<path d="M69.5112 34.2485H52.4588V69.1339H69.5112V34.2485Z" fill="#0FB5AC"/>
<path d="M26.8862 30.213H45.1541C45.6935 30.213 46.2108 30.4218 46.5922 30.7935C46.9736 31.1652 47.1879 31.6693 47.1879 32.195V58.6581C47.1879 59.1838 46.9736 59.688 46.5922 60.0597C46.2108 60.4314 45.6935 60.6402 45.1541 60.6402H26.8862V30.213Z" fill="#DCF5F3"/>
<path d="M76.7976 30.213H95.0654V60.6223H76.7976C76.2582 60.6223 75.7409 60.4135 75.3594 60.0418C74.978 59.6701 74.7637 59.1659 74.7637 58.6403V32.1891C74.7653 31.6644 74.9803 31.1618 75.3616 30.7914C75.7428 30.421 76.2592 30.2129 76.7976 30.213Z" fill="#DCF5F3"/>
<path d="M96.6228 13.8387H25.3532V26.6834H96.6228V13.8387Z" fill="url(#paint0_radial_0_443)"/>
<path d="M108.429 22.1121H13.5228L26.8862 9.24365H95.0654L108.429 22.1121Z" fill="#0D3A51"/>
<path d="M70.4212 31.695H51.5548V34.2485H70.4212V31.695Z" fill="#0FB5AC"/>
<path d="M47.1879 36.4151V32.7783C47.1863 32.0974 46.9076 31.4449 46.413 30.964C45.9183 30.483 45.2481 30.2129 44.5494 30.213H40.6955L26.8862 52.1584V60.6402H32.5419L47.1879 36.4151Z" fill="white"/>
<path d="M95.0716 40.0875V30.213H90.3992L74.7698 51.7001V58.0689C74.769 58.4063 74.8366 58.7405 74.9685 59.0524C75.1004 59.3644 75.2942 59.6479 75.5387 59.8867C75.7832 60.1256 76.0737 60.3151 76.3934 60.4444C76.7132 60.5736 77.056 60.6402 77.4022 60.6402H80.456L95.0716 40.0875Z" fill="white"/>
<path d="M54.914 52.6644C55.6865 52.6644 56.3127 52.0541 56.3127 51.3013C56.3127 50.5485 55.6865 49.9383 54.914 49.9383C54.1416 49.9383 53.5154 50.5485 53.5154 51.3013C53.5154 52.0541 54.1416 52.6644 54.914 52.6644Z" fill="#0E998F"/>
<path d="M35.2903 58.6224L45.093 42.5338V44.3433L37.031 58.6224H35.2903Z" fill="white"/>
<path d="M82.8258 59.7295L93.6912 43.6469V45.4564L84.5726 59.7295H82.8258Z" fill="white"/>
<path d="M69.5112 34.2485H52.4588V36.6889H69.5112V34.2485Z" fill="url(#paint1_radial_0_443)"/>
<path d="M12.5456 79.8953H54.914" stroke="#168457" stroke-width="2" stroke-miterlimit="10"/>
<path d="M12.5456 87.7581H53.5154" stroke="#168457" stroke-width="2" stroke-miterlimit="10"/>
<path d="M12.5456 95.6208H109.076" stroke="#168457" stroke-width="2" stroke-miterlimit="10"/>
<path d="M12.5456 103.484H109.076" stroke="#168457" stroke-width="2" stroke-miterlimit="10"/>
<path d="M12.5456 111.346H109.076" stroke="#168457" stroke-width="2" stroke-miterlimit="10"/>
<path d="M12.5456 119.209H109.076" stroke="#168457" stroke-width="2" stroke-miterlimit="10"/>
<path style="mix-blend-mode:multiply" d="M124.205 131.619L106.248 114.126C107.418 112.589 108.415 110.935 109.223 109.192C112.687 102.973 113.511 95.6783 111.517 88.8743C109.523 82.0703 104.871 76.2995 98.5597 72.8014C92.2482 69.3032 84.7807 68.3566 77.7609 70.1648C70.7412 71.9731 64.729 76.392 61.0155 82.4726C60.7285 82.9547 60.4536 83.4427 60.191 83.9427C60.171 83.9856 60.1486 84.0273 60.1238 84.0677C59.965 84.3832 59.8062 84.6987 59.6596 85.0201C56.4876 90.6223 55.4579 97.1396 56.7536 103.412C58.0494 109.685 61.5866 115.306 66.7359 119.276C71.8852 123.246 78.3127 125.306 84.8747 125.091C91.4366 124.876 97.7075 122.4 102.572 118.102L120.333 135.417C120.719 135.79 121.242 136 121.786 136C122.331 136 122.853 135.79 123.24 135.417C123.405 135.254 123.539 135.065 123.637 134.857C123.847 134.76 124.039 134.629 124.205 134.47C124.399 134.284 124.553 134.062 124.658 133.818C124.763 133.573 124.818 133.31 124.818 133.045C124.818 132.779 124.763 132.517 124.658 132.272C124.553 132.027 124.399 131.805 124.205 131.619Z" fill="url(#paint2_radial_0_443)"/>
<path d="M123.276 131.506C123.006 131.507 122.738 131.454 122.488 131.352C122.238 131.25 122.012 131.1 121.823 130.911L103.323 112.888C102.968 112.506 102.778 112.007 102.791 111.492C102.804 110.977 103.02 110.487 103.394 110.124C103.767 109.76 104.27 109.549 104.798 109.537C105.326 109.524 105.839 109.709 106.23 110.055L124.724 128.078C124.915 128.264 125.067 128.484 125.171 128.727C125.274 128.971 125.328 129.231 125.328 129.494C125.328 129.758 125.274 130.018 125.171 130.261C125.067 130.504 124.915 130.725 124.724 130.911C124.535 131.099 124.31 131.249 124.062 131.351C123.813 131.453 123.546 131.506 123.276 131.506Z" fill="#412BC9"/>
<path opacity="0.39" d="M86.4048 116.971C100.731 116.971 112.344 105.653 112.344 91.6924C112.344 77.7314 100.731 66.4138 86.4048 66.4138C72.0791 66.4138 60.4658 77.7314 60.4658 91.6924C60.4658 105.653 72.0791 116.971 86.4048 116.971Z" fill="#B8ECE9"/>
<path d="M85.4399 120.614C79.9521 120.614 74.5875 119.028 70.0245 116.057C65.4616 113.085 61.9052 108.862 59.8051 103.921C57.705 98.9802 57.1555 93.5433 58.2262 88.2979C59.2968 83.0526 61.9394 78.2344 65.8199 74.4528C69.7004 70.6711 74.6443 68.0957 80.0267 67.0524C85.4091 66.009 90.9881 66.5445 96.0581 68.5911C101.128 70.6378 105.462 74.1036 108.511 78.5504C111.559 82.9972 113.187 88.2252 113.187 93.5733C113.179 100.742 110.253 107.616 105.051 112.685C99.8491 117.754 92.7963 120.606 85.4399 120.614ZM85.4399 70.5445C80.7648 70.5445 76.1947 71.8956 72.3075 74.427C68.4204 76.9583 65.3908 80.5562 63.602 84.7656C61.8132 88.975 61.3455 93.6068 62.258 98.0753C63.1705 102.544 65.4223 106.648 68.7285 109.869C72.0348 113.091 76.2469 115.284 80.8324 116.172C85.4178 117.06 90.1705 116.603 94.4894 114.859C98.8083 113.114 102.499 110.161 105.096 106.372C107.692 102.583 109.078 98.1294 109.076 93.5733C109.068 87.4671 106.575 81.6133 102.144 77.2961C97.7129 72.9789 91.7056 70.5508 85.4399 70.5445Z" fill="#0D3A51"/>
<path d="M86.4598 118.727C80.9717 118.737 75.6037 117.162 71.0346 114.199C66.4655 111.236 62.9006 107.02 60.7906 102.083C58.6807 97.1452 58.1205 91.7091 59.1809 86.4615C60.2414 81.2139 62.8748 76.3907 66.7482 72.6018C70.6216 68.8129 75.5609 66.2284 80.9415 65.1754C86.3222 64.1223 91.9024 64.6478 96.9765 66.6856C102.051 68.7233 106.391 72.1817 109.448 76.6234C112.505 81.065 114.142 86.2905 114.152 91.6388C114.158 98.8075 111.246 105.686 106.054 110.764C100.863 115.843 93.8157 118.706 86.4598 118.727ZM86.3621 68.6577C81.6872 68.6659 77.1199 70.0249 73.2376 72.5629C69.3553 75.1008 66.3325 78.7037 64.5513 82.9159C62.7702 87.1281 62.3107 91.7604 63.231 96.2271C64.1513 100.694 66.4101 104.794 69.7216 108.01C73.0332 111.225 77.2489 113.412 81.8355 114.293C86.4222 115.173 91.1738 114.709 95.4896 112.958C99.8053 111.207 103.491 108.248 106.082 104.455C108.672 100.662 110.05 96.2065 110.041 91.6507C110.023 85.5435 107.52 79.6926 103.081 75.3819C98.6416 71.0712 92.6289 68.6529 86.3621 68.6577Z" fill="#168457"/>
<path d="M124.241 130.566C123.971 130.565 123.703 130.512 123.454 130.41C123.204 130.307 122.978 130.158 122.788 129.97L104.288 111.942C103.903 111.566 103.687 111.057 103.688 110.526C103.689 109.995 103.905 109.486 104.291 109.111C104.676 108.736 105.199 108.526 105.744 108.527C106.288 108.527 106.81 108.739 107.195 109.114L125.695 127.137C125.982 127.418 126.178 127.775 126.257 128.164C126.336 128.552 126.295 128.955 126.14 129.321C125.984 129.687 125.721 130 125.383 130.221C125.045 130.441 124.648 130.559 124.241 130.56V130.566Z" fill="#168457"/>
<path d="M96.0121 117.06C93.5457 116.432 91.1356 115.61 88.8052 114.602C88.0239 114.681 87.2391 114.721 86.4537 114.721C82.829 114.728 79.2512 113.923 75.997 112.367C72.7429 110.811 69.8996 108.546 67.6873 105.748C65.4749 102.95 63.9528 99.6932 63.2386 96.23C62.5244 92.7668 62.6373 89.1899 63.5685 85.776C62.9121 83.2284 62.5536 80.6167 62.4997 77.9906C59.6025 82.7978 58.3007 88.3602 58.7727 93.9163C59.2447 99.4724 61.4674 104.75 65.1364 109.028C68.8054 113.305 73.7414 116.373 79.2685 117.811C84.7957 119.249 90.6438 118.987 96.0121 117.06Z" fill="url(#paint3_radial_0_443)"/>
<path d="M103.793 86.395L82.6609 105.138C82.2848 105.471 81.7887 105.644 81.2815 105.621C80.7743 105.597 80.2973 105.379 79.9552 105.013L77.1518 102.037L68.9004 93.1805C68.7304 92.9997 68.5986 92.788 68.5127 92.5575C68.4267 92.3271 68.3884 92.0823 68.3997 91.8373C68.4111 91.5924 68.4719 91.352 68.5788 91.13C68.6857 90.908 68.8365 90.7087 69.0226 90.5437L70.6838 89.0675C71.0599 88.735 71.556 88.5615 72.0632 88.5849C72.5704 88.6084 73.0474 88.8269 73.3895 89.1925L81.647 98.0314L99.7011 82.0143C99.8869 81.8489 100.104 81.7209 100.341 81.6377C100.578 81.5544 100.829 81.5176 101.081 81.5292C101.332 81.5408 101.578 81.6007 101.806 81.7054C102.034 81.8101 102.238 81.9575 102.407 82.1393L103.915 83.7582C104.085 83.939 104.217 84.1507 104.303 84.3812C104.389 84.6116 104.427 84.8564 104.416 85.1014C104.405 85.3463 104.344 85.5867 104.237 85.8087C104.13 86.0307 103.979 86.23 103.793 86.395Z" fill="#168457"/>
</g>
<defs>
<radialGradient id="paint0_radial_0_443" cx="0" cy="0" r="1" gradientUnits="userSpaceOnUse" gradientTransform="translate(60.9911 20.3941) scale(47.0713 12.8444)">
<stop stop-color="#0E998F"/>
<stop offset="1" stop-color="#0E998F" stop-opacity="0"/>
</radialGradient>
<radialGradient id="paint1_radial_0_443" cx="0" cy="0" r="1" gradientUnits="userSpaceOnUse" gradientTransform="translate(60.8689 32.9632) scale(13.1619 4.36112)">
<stop stop-color="#0FB5AC"/>
<stop offset="1" stop-color="#0FB5AC" stop-opacity="0"/>
</radialGradient>
<radialGradient id="paint2_radial_0_443" cx="0" cy="0" r="1" gradientUnits="userSpaceOnUse" gradientTransform="translate(69.3437 159.401) rotate(-132.082) scale(64.4601 66.963)">
<stop stop-color="#0D3A51"/>
<stop offset="1" stop-color="#512EE5" stop-opacity="0"/>
</radialGradient>
<radialGradient id="paint3_radial_0_443" cx="0" cy="0" r="1" gradientUnits="userSpaceOnUse" gradientTransform="translate(78.7869 97.239) rotate(-132.014) scale(34.5083 20.7674)">
<stop stop-color="#412BC9"/>
<stop offset="1" stop-color="#412BC9" stop-opacity="0"/>
</radialGradient>
</defs>
</svg>
