<svg width="28" height="30" viewBox="0 0 28 30" fill="none" xmlns="http://www.w3.org/2000/svg">
<path d="M27.1152 20.0805C27.6983 19.3371 27.9774 18.5403 27.9415 17.7205C27.9056 16.8168 27.5012 16.1093 27.1686 15.6755C27.5555 14.7119 27.7038 13.1966 26.4133 12.0193C25.4681 11.1571 23.8625 10.7711 21.6388 10.878C20.0756 10.9489 18.7675 11.2409 18.7132 11.2529H18.7076C18.4101 11.3063 18.0951 11.3717 17.7745 11.4436C17.7505 11.0631 17.8159 10.118 18.5179 7.98918C19.3506 5.45595 19.3027 3.5178 18.3631 2.22171C17.3765 0.860215 15.8004 0.753357 15.3371 0.753357C14.8912 0.753357 14.4813 0.937592 14.1893 1.27658C13.5297 2.04392 13.6062 3.45885 13.69 4.11288C12.9052 6.21776 10.7054 11.3782 8.84463 12.8115C8.8087 12.8355 8.77923 12.865 8.74975 12.8944C8.20257 13.4711 7.8341 14.0956 7.58446 14.6428C7.2335 14.4521 6.83555 14.3453 6.4072 14.3453H2.78054C1.41352 14.3453 0.30719 15.4571 0.30719 16.8186V26.4799C0.30719 27.8469 1.41905 28.9533 2.78054 28.9533H6.4072C6.93596 28.9533 7.42971 28.7865 7.8341 28.501L9.23152 28.6677C9.44524 28.6972 13.2506 29.1789 17.1573 29.1016C17.8648 29.155 18.5308 29.1845 19.1489 29.1845C20.2128 29.1845 21.1405 29.1016 21.9133 28.9348C23.7326 28.5479 24.9753 27.7751 25.6054 26.6402C26.0872 25.7724 26.0872 24.9102 26.0098 24.363C27.1926 23.2926 27.4008 22.1099 27.3593 21.2771C27.3344 20.7944 27.2276 20.3836 27.1152 20.0805ZM2.77962 27.3458C2.29785 27.3458 1.91187 26.9534 1.91187 26.4781V16.8103C1.91187 16.3286 2.30429 15.9426 2.77962 15.9426H6.40628C6.88806 15.9426 7.27403 16.335 7.27403 16.8103V26.4716C7.27403 26.9534 6.88161 27.3394 6.40628 27.3394H2.77962V27.3458ZM25.5925 19.385C25.3429 19.6466 25.295 20.0446 25.4856 20.3541C25.4856 20.3596 25.7297 20.776 25.7592 21.3471C25.8007 22.1264 25.4267 22.8155 24.6418 23.4041C24.3627 23.6178 24.2494 23.9872 24.3683 24.3197C24.3683 24.3253 24.6243 25.1101 24.208 25.8535C23.81 26.5674 22.9239 27.0787 21.5799 27.3633C20.5039 27.5954 19.0411 27.6369 17.2457 27.4941C17.2218 27.4941 17.1923 27.4941 17.1628 27.4941C13.34 27.577 9.47563 27.0777 9.43326 27.0722H9.42773L8.82713 27.0013C8.86305 26.8346 8.88056 26.6568 8.88056 26.4781V16.8103C8.88056 16.5543 8.8391 16.3046 8.76725 16.0734C8.87411 15.6755 9.17165 14.7893 9.87358 14.0339C12.5431 11.9171 15.1528 4.77705 15.2661 4.46753C15.314 4.34225 15.326 4.20592 15.3021 4.06959C15.2007 3.40358 15.2367 2.58926 15.3794 2.34515C15.6945 2.35067 16.5447 2.44003 17.056 3.14749C17.6621 3.98576 17.6391 5.48451 16.985 7.46964C15.9865 10.4957 15.9027 12.0893 16.694 12.7913C17.0864 13.1422 17.6096 13.1597 17.99 13.0234C18.353 12.9405 18.6975 12.8686 19.0245 12.8152C19.0485 12.8097 19.078 12.8032 19.1019 12.7977C20.9267 12.3998 24.1969 12.1557 25.3327 13.1901C26.2963 14.0698 25.6118 15.2351 25.5345 15.3604C25.3143 15.693 25.3797 16.1278 25.6772 16.3949C25.6828 16.4004 26.3073 16.989 26.3368 17.7803C26.3598 18.3091 26.1102 18.8498 25.5925 19.385Z" fill="#00B956"/>
</svg>
