<svg width="145" height="32" viewBox="0 0 145 32" fill="none" xmlns="http://www.w3.org/2000/svg">
<path d="M8.32499 8.17564L8.33973 8.21894C8.35907 9.20275 8.01363 10.0254 7.30341 10.6877C6.59318 11.35 5.65543 11.6807 4.48922 11.6807C3.30459 11.6807 2.33827 11.2607 1.59212 10.4215C0.845972 9.58228 0.4729 8.5174 0.4729 7.22591V5.36146C0.4729 4.07089 0.845972 3.00417 1.59212 2.16222C2.33827 1.32027 3.30367 0.899292 4.48922 0.899292C5.67477 0.899292 6.61713 1.21525 7.31722 1.84533C8.01824 2.47634 8.35815 3.31277 8.33881 4.35369L8.32406 4.39699H6.96349C6.96349 3.66281 6.74793 3.08247 6.3159 2.65505C5.88387 2.22854 5.27498 2.01483 4.4883 2.01483C3.69701 2.01483 3.06601 2.33448 2.59529 2.97193C2.12457 3.61031 1.88967 4.40159 1.88967 5.34672V7.22499C1.88967 8.18025 2.12457 8.97614 2.59529 9.61452C3.06601 10.2529 3.69609 10.5716 4.4883 10.5716C5.27498 10.5716 5.88479 10.3597 6.3159 9.93508C6.74701 9.51042 6.96349 8.92364 6.96349 8.17564H8.32499Z" fill="black"/>
<path d="M12.2446 8.22634H11.5178V11.5297H10.1001V3.74298H11.5178V7.03157H12.1221L14.9068 3.74298H16.5695L16.5843 3.77891L13.3528 7.47834L16.8284 11.4937L16.8137 11.5297H15.0717L12.2446 8.22634Z" fill="black"/>
<path d="M23.1592 3.74298H24.5768V11.5297H23.1592V6.00262L23.1159 5.98788L19.6762 11.5297H18.2659V3.74298H19.6762V9.27002L19.7195 9.28476L23.1592 3.74298Z" fill="black"/>
<path d="M26.9101 10.4215C27.2841 10.4215 27.5559 10.1138 27.7272 9.49664C27.8976 8.88037 28.0201 7.93893 28.0975 6.67231L28.2845 3.74298H33.4514V10.4215H34.4803V14.1062H33.0627V11.5297H27.5642V14.1062H26.1465V10.4215H26.9101ZM29.5226 6.67139C29.4645 7.58796 29.3872 8.34425 29.2886 8.94209C29.19 9.53901 29.0417 10.0328 28.8464 10.4206H32.0346V5.00223H29.6239L29.5226 6.67139Z" fill="black"/>
<path d="M38.2938 8.22634H37.567V11.5297H36.1493V3.74298H37.567V7.03157H38.1713L40.956 3.74298H42.6187L42.6334 3.77891L39.4019 7.47834L42.8775 11.4937L42.8628 11.5297H41.1209L38.2938 8.22634Z" fill="black"/>
<path d="M48.8542 11.5296C48.8063 11.2947 48.7686 11.0875 48.7428 10.9069C48.717 10.7264 48.7004 10.5458 48.6958 10.3634C48.4323 10.7374 48.0878 11.0506 47.6632 11.303C47.2385 11.5554 46.7816 11.6807 46.2925 11.6807C45.4818 11.6807 44.8637 11.4735 44.439 11.058C44.0144 10.6435 43.8025 10.0714 43.8025 9.34186C43.8025 8.59847 44.1037 8.01721 44.7053 7.59623C45.3068 7.17618 46.1239 6.96615 47.1556 6.96615H48.6958V6.19605C48.6958 5.74007 48.5567 5.37897 48.2785 5.11275C48.0003 4.84653 47.607 4.71296 47.0985 4.71296C46.6379 4.71296 46.2667 4.82811 45.9829 5.0584C45.6992 5.28869 45.5583 5.56505 45.5583 5.88561L44.2124 5.90035L44.1977 5.85706C44.1645 5.29146 44.4289 4.77284 44.9927 4.30212C45.5564 3.83232 46.2842 3.5965 47.1768 3.5965C48.0593 3.5965 48.7695 3.82126 49.3075 4.26895C49.8445 4.71756 50.1135 5.36423 50.1135 6.20802V9.95721C50.1135 10.2354 50.1282 10.5044 50.1568 10.7632C50.1853 11.0221 50.2388 11.2772 50.3152 11.526H48.8542V11.5296ZM46.5016 10.4933C47.0156 10.4933 47.478 10.3616 47.8907 10.0972C48.3034 9.83377 48.5714 9.53162 48.6967 9.19079V7.92417H47.1058C46.5347 7.92417 46.0778 8.06787 45.7351 8.3562C45.3925 8.64453 45.2202 8.9826 45.2202 9.37134C45.2202 9.71678 45.328 9.99037 45.5445 10.1921C45.7609 10.3938 46.0797 10.4933 46.5016 10.4933Z" fill="black"/>
<path d="M62.1466 3.74298V11.5297H60.7289V4.86589H58.0952V7.06842C58.0952 8.60402 57.8907 9.73153 57.4836 10.451C57.0764 11.1704 56.38 11.5306 55.3962 11.5306H54.9927L55.0213 10.3211L55.3161 10.3137C55.8199 10.3137 56.1718 10.0678 56.3708 9.57586C56.5698 9.08395 56.6693 8.24844 56.6693 7.0675V3.74298H62.1466Z" fill="black"/>
<path d="M65.686 6.70733H67.6223C68.5435 6.70733 69.2592 6.92841 69.7705 7.36965C70.2817 7.81089 70.5369 8.38478 70.5369 9.08948C70.5369 9.79971 70.2789 10.3837 69.7631 10.8416C69.2463 11.3003 68.5333 11.5287 67.6223 11.5287H64.2683V3.74207H65.686V6.70733ZM65.686 7.81642V10.4215H67.6223C68.1308 10.4215 68.5057 10.299 68.7489 10.0549C68.9911 9.80984 69.1127 9.50585 69.1127 9.14107C69.1127 8.78641 68.9902 8.4769 68.7461 8.21252C68.5011 7.94907 68.1271 7.81642 67.6232 7.81642H65.686Z" fill="black"/>
<path d="M77.12 4.86498H73.5864V11.5287H72.1687V3.74207H77.12V4.86498Z" fill="black"/>
<path d="M77.984 7.56398C77.984 6.41251 78.2954 5.4637 78.9199 4.71755C79.5436 3.9714 80.3901 3.59833 81.4605 3.59833C82.5401 3.59833 83.3931 3.97048 84.0186 4.71387C84.645 5.45818 84.9582 6.4079 84.9582 7.56398V7.72242C84.9582 8.88402 84.6459 9.83375 84.0223 10.5725C83.3978 11.3113 82.5484 11.6807 81.4743 11.6807C80.3993 11.6807 79.5491 11.3104 78.9227 10.5688C78.2963 9.8273 77.9831 8.87942 77.9831 7.72242L77.984 7.56398ZM79.4017 7.72242C79.4017 8.54779 79.5749 9.22946 79.9231 9.76651C80.2704 10.3036 80.7871 10.5725 81.4743 10.5725C82.1505 10.5725 82.6636 10.3036 83.0145 9.76651C83.3646 9.22946 83.5396 8.54779 83.5396 7.72242V7.56398C83.5396 6.74874 83.3637 6.06984 83.0109 5.52726C82.658 4.98561 82.1413 4.71387 81.4596 4.71387C80.7834 4.71387 80.2704 4.98469 79.9231 5.52726C79.5749 6.06984 79.4017 6.74874 79.4017 7.56398V7.72242Z" fill="black"/>
<path d="M92.539 4.84378H89.9698V11.5297H88.5521V4.84378H86.0189V3.74298H92.539V4.84378Z" fill="black"/>
<path d="M100.419 11.5297H99.0011V8.21897H95.5319V11.5297H94.1143V3.74298H95.5319V7.11079H99.0011V3.74298H100.419V11.5297Z" fill="black"/>
<path d="M104.136 6.70733H106.072C106.994 6.70733 107.709 6.92841 108.221 7.36965C108.732 7.81089 108.987 8.38478 108.987 9.08948C108.987 9.79971 108.729 10.3837 108.213 10.8416C107.697 11.3003 106.984 11.5287 106.072 11.5287H102.719V3.74207H104.136V6.70733ZM104.136 7.81642V10.4215H106.072C106.581 10.4215 106.956 10.299 107.199 10.0549C107.441 9.80984 107.563 9.50585 107.563 9.14107C107.563 8.78641 107.44 8.4769 107.196 8.21252C106.951 7.94907 106.577 7.81642 106.073 7.81642H104.136ZM111.779 11.5297H110.361V3.74299H111.779V11.5297Z" fill="black"/>
<path d="M118.518 9.67258H118.561L121.109 3.74207H122.879V11.5287H121.462V6.12422L121.418 6.10948L119.029 11.5287H118.05L115.617 5.98697L115.574 6.0017V11.5287H114.156V3.74207H115.984L118.518 9.67258Z" fill="black"/>
<path d="M2.86983 24.8074H2.14302V28.1108H0.725342V20.3241H2.14302V23.6127H2.74732L5.53202 20.3241H7.19474L7.20948 20.36L3.97801 24.0595L7.45359 28.0749L7.43885 28.1108H5.69691L2.86983 24.8074Z" fill="black"/>
<path d="M13.4303 28.1108C13.3824 27.8759 13.3446 27.6686 13.3188 27.488C13.293 27.3075 13.2764 27.1269 13.2718 26.9446C13.0084 27.3186 12.6639 27.6317 12.2392 27.8842C11.8145 28.1366 11.3576 28.2618 10.8685 28.2618C10.0579 28.2618 9.43976 28.0546 9.0151 27.6391C8.59044 27.2246 8.37857 26.6525 8.37857 25.923C8.37857 25.1796 8.67979 24.5983 9.28132 24.1773C9.88284 23.7573 10.6999 23.5473 11.7316 23.5473H13.2718V22.7772C13.2718 22.3212 13.1328 21.9601 12.8546 21.6939C12.5764 21.4276 12.183 21.2941 11.6745 21.2941C11.2139 21.2941 10.8427 21.4092 10.559 21.6395C10.2753 21.8698 10.1343 22.1462 10.1343 22.4667L8.78849 22.4815L8.77375 22.4382C8.74059 21.8726 9.00497 21.354 9.56873 20.8832C10.1325 20.4134 10.8602 20.1776 11.7528 20.1776C12.6353 20.1776 13.3455 20.4024 13.8835 20.8501C14.4205 21.2987 14.6895 21.9453 14.6895 22.7891V26.5383C14.6895 26.8165 14.7043 27.0855 14.7328 27.3443C14.7614 27.6032 14.8148 27.8584 14.8913 28.1071H13.4303V28.1108ZM11.0767 27.0744C11.5907 27.0744 12.0531 26.9427 12.4658 26.6783C12.8785 26.4149 13.1466 26.1127 13.2718 25.7719V24.5053H11.681C11.1099 24.5053 10.6529 24.649 10.3103 24.9373C9.9676 25.2256 9.79533 25.5637 9.79533 25.9524C9.79533 26.2979 9.90311 26.5715 10.1196 26.7732C10.3361 26.975 10.6548 27.0744 11.0767 27.0744Z" fill="black"/>
<path d="M22.6665 21.4249H20.0973V28.1108H18.6787V21.4249H16.1455V20.3241H22.6656V21.4249H22.6665Z" fill="black"/>
<path d="M27.2805 28.2618C26.1622 28.2618 25.2907 27.9044 24.6643 27.1896C24.0379 26.4747 23.7247 25.5342 23.7247 24.368V24.052C23.7247 22.9347 24.0472 22.0098 24.6929 21.2775C25.3377 20.5461 26.1263 20.1804 27.0566 20.1804C28.0976 20.1804 28.8787 20.5046 29.3992 21.1522C29.9187 21.7998 30.1803 22.6611 30.1803 23.7361V24.485H25.2005L25.1793 24.5209C25.1793 25.303 25.3525 25.9377 25.6979 26.4241C26.0433 26.9114 26.5703 27.1546 27.2814 27.1546C27.7613 27.1546 28.1823 27.0864 28.5443 26.9491C28.9063 26.8128 29.2168 26.624 29.4766 26.3845L30.0311 27.3056C29.752 27.5746 29.3854 27.8012 28.9303 27.9855C28.4725 28.1688 27.9235 28.2618 27.2805 28.2618ZM27.0576 21.295C26.5629 21.295 26.1548 21.4857 25.8305 21.867C25.5063 22.2484 25.3092 22.7366 25.2364 23.3317L25.2511 23.3676H28.7636V23.2525C28.7636 22.6869 28.6245 22.2189 28.3463 21.8495C28.0672 21.4801 27.6379 21.295 27.0576 21.295Z" fill="black"/>
<path d="M36.9212 21.4461H33.3876V28.1099H31.9699V20.3232H36.9212V21.4461Z" fill="black"/>
<path d="M37.7852 24.1452C37.7852 22.9937 38.0965 22.0449 38.7211 21.2987C39.3447 20.5526 40.1913 20.1795 41.2617 20.1795C42.3413 20.1795 43.1943 20.5517 43.8198 21.295C44.4462 22.0394 44.7594 22.9891 44.7594 24.1452V24.3036C44.7594 25.4652 44.4471 26.4149 43.8235 27.1537C43.1989 27.8925 42.3496 28.2619 41.2755 28.2619C40.2005 28.2619 39.3502 27.8916 38.7238 27.15C38.0974 26.4085 37.7842 25.4606 37.7842 24.3036L37.7852 24.1452ZM39.2028 24.3036C39.2028 25.129 39.376 25.8106 39.7242 26.3477C40.0715 26.8847 40.5883 27.1537 41.2755 27.1537C41.9516 27.1537 42.4647 26.8847 42.8157 26.3477C43.1657 25.8106 43.3408 25.129 43.3408 24.3036V24.1452C43.3408 23.3299 43.1648 22.651 42.812 22.1084C42.4592 21.5668 41.9424 21.295 41.2607 21.295C40.5846 21.295 40.0715 21.5659 39.7242 22.1084C39.376 22.651 39.2028 23.3299 39.2028 24.1452V24.3036Z" fill="black"/>
<path d="M53.233 24.5126C53.233 25.6355 52.964 26.5411 52.427 27.2292C51.89 27.9182 51.1484 28.2618 50.2033 28.2618C49.7234 28.2618 49.3024 28.1817 48.9404 28.0205C48.5783 27.8593 48.2697 27.6188 48.0155 27.2973V31.1046H46.5978V20.3241H47.6848L47.9077 21.3318C48.162 20.9578 48.4788 20.6723 48.8575 20.4751C49.2361 20.2789 49.6782 20.1804 50.1821 20.1804C51.1466 20.1804 51.8955 20.5636 52.4307 21.3281C52.9659 22.0936 53.233 23.1051 53.233 24.3616V24.5126ZM51.8153 24.3606C51.8153 23.4782 51.6422 22.7523 51.294 22.1839C50.9458 21.6155 50.4336 21.3309 49.7574 21.3309C49.3503 21.3309 49.0021 21.4239 48.7138 21.6082C48.4254 21.7933 48.1933 22.0467 48.0155 22.3672V26.1311C48.1924 26.4526 48.4254 26.7032 48.7138 26.8828C49.0021 27.0625 49.354 27.1527 49.7713 27.1527C50.4428 27.1527 50.9513 26.9068 51.2967 26.4149C51.6422 25.923 51.8153 25.2883 51.8153 24.5117V24.3606Z" fill="black"/>
<path d="M59.9961 20.3241H61.4138V28.1108H59.9961V22.5837L59.9528 22.569L56.5131 28.1108H55.1028V20.3241H56.5131V25.8511L56.5564 25.8659L59.9961 20.3241Z" fill="black"/>
<path d="M69.7176 20.3241V28.1108H68.2999V25.0884H66.3783L64.536 28.1108H63.0105L64.9827 24.8793C64.489 24.7024 64.1085 24.4215 63.8423 24.0373C63.5761 23.6532 63.4425 23.2101 63.4425 22.7063C63.4425 22.0062 63.7078 21.4341 64.2375 20.9901C64.7672 20.547 65.4977 20.3241 66.429 20.3241H69.7176ZM64.8666 22.7201C64.8666 23.0655 64.9846 23.3603 65.2195 23.6053C65.4544 23.8504 65.8072 23.9719 66.277 23.9719H68.2989V21.424H66.428C65.914 21.424 65.5262 21.5529 65.2618 21.809C64.9993 22.067 64.8666 22.37 64.8666 22.7201Z" fill="black"/>
<path d="M76.341 26.2537H76.3843L78.9323 20.3232H80.7028V28.1099H79.2851V22.7053L79.2418 22.6906L76.8523 28.1099H75.8731L73.4402 22.5681L73.3969 22.5828V28.1099H71.9792V20.3232H73.8069L76.341 26.2537Z" fill="black"/>
<path d="M91.5188 21.4461H87.9852V28.1099H86.5675V20.3232H91.5188V21.4461Z" fill="black"/>
<path d="M99.5368 24.5126C99.5368 25.6355 99.2678 26.5411 98.7308 27.2292C98.1928 27.9182 97.4513 28.2618 96.5071 28.2618C96.0271 28.2618 95.6052 28.1817 95.2441 28.0205C94.8812 27.8602 94.5726 27.6188 94.3193 27.2973V31.1046H92.9016V20.3241H93.9886L94.2115 21.3318C94.4648 20.9578 94.7817 20.6723 95.1612 20.4751C95.5398 20.2789 95.982 20.1804 96.4859 20.1804C97.4503 20.1804 98.1993 20.5636 98.7345 21.3281C99.2687 22.0936 99.5368 23.1051 99.5368 24.3616V24.5126ZM98.1191 24.3606C98.1191 23.4782 97.945 22.7523 97.5977 22.1839C97.2495 21.6155 96.7374 21.3309 96.0612 21.3309C95.6531 21.3309 95.3058 21.4239 95.0175 21.6082C94.7292 21.7933 94.4971 22.0467 94.3193 22.3672V26.1311C94.4961 26.4526 94.7292 26.7032 95.0175 26.8828C95.3058 27.0625 95.6577 27.1527 96.075 27.1527C96.7466 27.1527 97.255 26.9068 97.6005 26.4149C97.9459 25.923 98.1191 25.2883 98.1191 24.5117V24.3606Z" fill="black"/>
<path d="M106.087 28.1108C106.038 27.8759 106.001 27.6686 105.975 27.488C105.948 27.3084 105.933 27.1269 105.928 26.9446C105.664 27.3186 105.32 27.6317 104.895 27.8842C104.471 28.1366 104.014 28.2618 103.525 28.2618C102.713 28.2618 102.096 28.0546 101.671 27.6391C101.247 27.2246 101.035 26.6525 101.035 25.923C101.035 25.1796 101.335 24.5983 101.938 24.1773C102.539 23.7573 103.356 23.5473 104.388 23.5473H105.928V22.7772C105.928 22.3212 105.789 21.9601 105.511 21.6939C105.232 21.4276 104.839 21.2941 104.331 21.2941C103.87 21.2941 103.498 21.4092 103.215 21.6395C102.932 21.8698 102.791 22.1462 102.791 22.4667L101.445 22.4815L101.43 22.4382C101.396 21.8726 101.661 21.354 102.225 20.8832C102.788 20.4134 103.516 20.1776 104.409 20.1776C105.292 20.1776 106.002 20.4024 106.54 20.8501C107.077 21.2987 107.346 21.9453 107.346 22.7891V26.5383C107.346 26.8165 107.361 27.0855 107.389 27.3443C107.418 27.6032 107.47 27.8584 107.548 28.1071H106.087V28.1108ZM103.733 27.0744C104.246 27.0744 104.709 26.9427 105.122 26.6783C105.534 26.4149 105.803 26.1127 105.928 25.7719V24.5053H104.337C103.766 24.5053 103.309 24.649 102.967 24.9373C102.623 25.2256 102.452 25.5637 102.452 25.9524C102.452 26.2979 102.559 26.5715 102.776 26.7732C102.992 26.975 103.31 27.0744 103.733 27.0744Z" fill="black"/>
<path d="M115.09 24.7356H114.673V28.1108H113.255V24.7356H112.838L110.643 28.1108H108.858L111.765 23.9941L109.102 20.3241H110.814L112.872 23.5335H113.254V20.3241H114.671V23.5335H115.06L117.125 20.3241H118.831L116.168 23.9941L119.075 28.1108H117.29L115.09 24.7356Z" fill="black"/>
<path d="M120.994 27.0026C121.368 27.0026 121.64 26.6949 121.811 26.0778C121.981 25.4615 122.105 24.52 122.181 23.2534L122.368 20.3241H127.535V27.0026H128.564V30.6873H127.146V28.1108H121.648V30.6873H120.23V27.0026H120.994ZM123.606 23.2525C123.548 24.1691 123.471 24.9254 123.372 25.5232C123.274 26.121 123.126 26.6139 122.93 27.0017H126.118V21.5833H123.708L123.606 23.2525Z" fill="black"/>
<path d="M134.996 28.1108C134.948 27.8759 134.91 27.6686 134.884 27.488C134.859 27.3075 134.842 27.1269 134.837 26.9446C134.574 27.3186 134.23 27.6317 133.805 27.8842C133.38 28.1366 132.923 28.2618 132.434 28.2618C131.624 28.2618 131.005 28.0546 130.581 27.6391C130.156 27.2246 129.944 26.6525 129.944 25.923C129.944 25.1796 130.245 24.5983 130.847 24.1773C131.449 23.7573 132.266 23.5473 133.297 23.5473H134.837V22.7772C134.837 22.3212 134.698 21.9601 134.42 21.6939C134.142 21.4276 133.749 21.2941 133.24 21.2941C132.78 21.2941 132.408 21.4092 132.125 21.6395C131.841 21.8698 131.7 22.1462 131.7 22.4667L130.354 22.4815L130.339 22.4382C130.306 21.8726 130.571 21.354 131.134 20.8832C131.698 20.4134 132.426 20.1776 133.318 20.1776C134.201 20.1776 134.911 20.4024 135.449 20.8501C135.986 21.2987 136.255 21.9453 136.255 22.7891V26.5383C136.255 26.8165 136.27 27.0855 136.298 27.3443C136.327 27.6032 136.38 27.8584 136.457 28.1071H134.996V28.1108ZM132.642 27.0744C133.156 27.0744 133.619 26.9427 134.031 26.6783C134.444 26.4149 134.712 26.1127 134.837 25.7719V24.5053H133.247C132.676 24.5053 132.219 24.649 131.876 24.9373C131.533 25.2256 131.361 25.5637 131.361 25.9524C131.361 26.2979 131.469 26.5715 131.685 26.7732C131.902 26.975 132.22 27.0744 132.642 27.0744Z" fill="black"/>
<path d="M144.723 28.1108H143.305V24.8001H139.836V28.1108H138.419V20.3241H139.836V23.6919H143.305V20.3241H144.723V28.1108Z" fill="black"/>
</svg>
