<svg width="92" height="32" viewBox="0 0 92 32" fill="none" xmlns="http://www.w3.org/2000/svg">
<path d="M7.94612 8.17564L7.96086 8.21894C7.9802 9.20275 7.63476 10.0254 6.92454 10.6877C6.21431 11.35 5.27656 11.6807 4.11035 11.6807C2.92572 11.6807 1.95941 11.2607 1.21326 10.4215C0.467104 9.58228 0.0940323 8.5174 0.0940323 7.22591V5.36146C0.0940323 4.07089 0.467104 3.00417 1.21326 2.16222C1.95941 1.32027 2.9248 0.899292 4.11035 0.899292C5.2959 0.899292 6.23826 1.21525 6.93836 1.84533C7.63937 2.47634 7.97928 3.31277 7.95994 4.35369L7.94519 4.39699H6.58462C6.58462 3.66281 6.36906 3.08247 5.93703 2.65505C5.505 2.22854 4.89611 2.01483 4.10943 2.01483C3.31814 2.01483 2.68714 2.33448 2.21642 2.97193C1.7457 3.61031 1.5108 4.40159 1.5108 5.34672V7.22499C1.5108 8.18025 1.7457 8.97614 2.21642 9.61452C2.68714 10.2529 3.31722 10.5716 4.10943 10.5716C4.89611 10.5716 5.50592 10.3597 5.93703 9.93508C6.36814 9.51042 6.58462 8.92364 6.58462 8.17564H7.94612Z" fill="black"/>
<path d="M11.866 8.22634H11.1392V11.5297H9.72147V3.74298H11.1392V7.03157H11.7435L14.5282 3.74298H16.1909L16.2056 3.77891L12.9741 7.47834L16.4497 11.4937L16.435 11.5297H14.6931L11.866 8.22634Z" fill="black"/>
<path d="M22.7805 3.74298H24.1982V11.5297H22.7805V6.00262L22.7372 5.98788L19.2975 11.5297H17.8872V3.74298H19.2975V9.27002L19.3408 9.28476L22.7805 3.74298Z" fill="black"/>
<path d="M26.5315 10.4215C26.9055 10.4215 27.1772 10.1138 27.3486 9.49664C27.519 8.88037 27.6415 7.93893 27.7189 6.67231L27.9059 3.74298H33.0727V10.4215H34.1017V14.1062H32.684V11.5297H27.1855V14.1062H25.7678V10.4215H26.5315ZM29.1439 6.67139C29.0859 7.58796 29.0085 8.34425 28.9099 8.94209C28.8114 9.53901 28.6631 10.0328 28.4678 10.4206H31.656V5.00223H29.2452L29.1439 6.67139Z" fill="black"/>
<path d="M37.9151 8.22634H37.1883V11.5297H35.7706V3.74298H37.1883V7.03157H37.7926L40.5773 3.74298H42.24L42.2548 3.77891L39.0233 7.47834L42.4989 11.4937L42.4841 11.5297H40.7422L37.9151 8.22634Z" fill="black"/>
<path d="M48.8278 3.74298H50.2455V11.5297H48.8278V6.00262L48.7845 5.98788L45.3449 11.5297H43.9345V3.74298H45.3449V9.27002L45.3882 9.28476L48.8278 3.74298Z" fill="black"/>
<path d="M6.58726 28.1108H5.16957V21.447H1.69399V28.1108H0.276299V20.3241H6.58818L6.58726 28.1108Z" fill="black"/>
<path d="M12.0014 28.2618C10.8831 28.2618 10.0116 27.9044 9.38523 27.1896C8.75883 26.4747 8.44563 25.5342 8.44563 24.368V24.052C8.44563 22.9347 8.76896 22.0098 9.41378 21.2775C10.0586 20.5461 10.8471 20.1804 11.7775 20.1804C12.8184 20.1804 13.5996 20.5046 14.1201 21.1522C14.6405 21.7998 14.9012 22.6611 14.9012 23.7361V24.485H9.92135L9.90016 24.5209C9.90016 25.303 10.0733 25.9377 10.4188 26.4241C10.7642 26.9114 11.2921 27.1546 12.0023 27.1546C12.4822 27.1546 12.9032 27.0864 13.2652 26.9491C13.6272 26.8119 13.9377 26.624 14.1974 26.3845L14.752 27.3056C14.4738 27.5746 14.1072 27.8012 13.6512 27.9855C13.1952 28.1697 12.6453 28.2618 12.0014 28.2618ZM11.7784 21.295C11.2847 21.295 10.8757 21.4857 10.5514 21.867C10.2272 22.2484 10.0301 22.7366 9.95728 23.3317L9.97202 23.3676H13.4844V23.2525C13.4844 22.6869 13.3454 22.2189 13.0672 21.8495C12.789 21.4801 12.3588 21.295 11.7784 21.295Z" fill="black"/>
<path d="M22.9971 28.1108H21.5794V24.8001H18.1102V28.1108H16.6926V20.3241H18.1102V23.6919H21.5794V20.3241H22.9971V28.1108Z" fill="black"/>
<path d="M28.2833 27.1536C28.7199 27.1536 29.1013 27.009 29.4274 26.7179C29.7535 26.4278 29.9165 26.0713 29.9165 25.6494H31.1979L31.2191 25.6927C31.2384 26.3642 30.9501 26.9602 30.355 27.4807C29.7599 28.0011 29.069 28.2618 28.2823 28.2618C27.188 28.2618 26.3442 27.8906 25.7491 27.1463C25.154 26.4029 24.8565 25.4762 24.8565 24.368V24.0659C24.8565 22.9678 25.155 22.0448 25.7528 21.2987C26.3497 20.5525 27.1926 20.1794 28.2823 20.1794C29.1501 20.1794 29.8622 20.4484 30.4158 20.9855C30.9703 21.5225 31.2375 22.183 31.2181 22.9641L31.2034 23.0074H29.9156C29.9156 22.5321 29.7608 22.1286 29.4513 21.7952C29.1418 21.4617 28.7522 21.295 28.2814 21.295C27.5859 21.295 27.0784 21.5649 26.7596 22.1047C26.4409 22.6445 26.2806 23.2985 26.2806 24.0659V24.368C26.2806 25.1501 26.4382 25.8097 26.7523 26.3467C27.0682 26.8847 27.5786 27.1536 28.2833 27.1536Z" fill="black"/>
<path d="M37.9173 20.3241H39.335V28.1108H37.9173V22.5837L37.874 22.569L34.4344 28.1108H33.024V20.3241H34.4344V25.8511L34.4776 25.8659L37.9173 20.3241Z" fill="black"/>
<path d="M41.1726 24.1451C41.1726 22.9936 41.4849 22.0448 42.1086 21.2987C42.7322 20.5525 43.5797 20.1794 44.6491 20.1794C45.7288 20.1794 46.5818 20.5516 47.2073 21.295C47.8337 22.0393 48.1468 22.989 48.1468 24.1451V24.3035C48.1468 25.4651 47.8346 26.4149 47.2109 27.1536C46.5873 27.8924 45.738 28.2618 44.663 28.2618C43.588 28.2618 42.7377 27.8915 42.1113 27.15C41.4849 26.4084 41.1717 25.4605 41.1717 24.3035L41.1726 24.1451ZM42.5913 24.3035C42.5913 25.1289 42.7644 25.8106 43.1126 26.3476C43.4608 26.8847 43.9767 27.1536 44.6639 27.1536C45.34 27.1536 45.854 26.8847 46.2041 26.3476C46.5541 25.8106 46.7292 25.1289 46.7292 24.3035V24.1451C46.7292 23.3299 46.5532 22.651 46.2004 22.1084C45.8476 21.5667 45.3308 21.295 44.6491 21.295C43.973 21.295 43.4608 21.5658 43.1126 22.1084C42.7644 22.651 42.5913 23.3299 42.5913 24.1451V24.3035Z" fill="black"/>
<path d="M56.2898 28.1108H54.8721V24.8001H51.403V28.1108H49.9853V20.3241H51.403V23.6919H54.8721V20.3241H56.2898V28.1108Z" fill="black"/>
<path d="M61.7068 28.2618C60.5885 28.2618 59.717 27.9044 59.0906 27.1896C58.4642 26.4747 58.151 25.5342 58.151 24.368V24.052C58.151 22.9347 58.4744 22.0098 59.1192 21.2775C59.764 20.5461 60.5525 20.1804 61.4829 20.1804C62.5238 20.1804 63.305 20.5046 63.8255 21.1522C64.3459 21.7998 64.6066 22.6611 64.6066 23.7361V24.485H59.6268L59.6056 24.5209C59.6056 25.303 59.7787 25.9377 60.1242 26.4241C60.4696 26.9114 60.9975 27.1546 61.7077 27.1546C62.1876 27.1546 62.6086 27.0864 62.9706 26.9491C63.3326 26.8119 63.6431 26.624 63.9028 26.3845L64.4574 27.3056C64.1792 27.5746 63.8126 27.8012 63.3566 27.9855C62.9006 28.1697 62.3497 28.2618 61.7068 28.2618ZM61.4829 21.295C60.9892 21.295 60.5802 21.4857 60.2559 21.867C59.9317 22.2484 59.7345 22.7366 59.6618 23.3317L59.6765 23.3676H63.1889V23.2525C63.1889 22.6869 63.0498 22.2189 62.7716 21.8495C62.4935 21.4801 62.0633 21.295 61.4829 21.295Z" fill="black"/>
<path d="M73.0314 24.5126C73.0314 25.6355 72.7624 26.5411 72.2254 27.2292C71.6883 27.9182 70.9468 28.2618 70.0017 28.2618C69.5217 28.2618 69.1008 28.1817 68.7387 28.0205C68.3767 27.8593 68.0681 27.6188 67.8139 27.2973V31.1046H66.3962V20.3241H67.4832L67.7061 21.3318C67.9603 20.9578 68.2772 20.6723 68.6558 20.4751C69.0344 20.2789 69.4766 20.1804 69.9805 20.1804C70.9449 20.1804 71.6939 20.5636 72.2291 21.3281C72.7643 22.0936 73.0314 23.1051 73.0314 24.3616V24.5126ZM71.6137 24.3606C71.6137 23.4782 71.4405 22.7523 71.0923 22.1839C70.7441 21.6155 70.232 21.3309 69.5558 21.3309C69.1487 21.3309 68.8005 21.4239 68.5121 21.6082C68.2238 21.7933 67.9917 22.0467 67.8139 22.3672V26.1311C67.9907 26.4526 68.2238 26.7032 68.5121 26.8828C68.8005 27.0625 69.1523 27.1527 69.5696 27.1527C70.2412 27.1527 70.7497 26.9068 71.0951 26.4149C71.4405 25.923 71.6137 25.2883 71.6137 24.5117V24.3606Z" fill="black"/>
<path d="M79.5829 28.1108C79.5341 27.8759 79.4973 27.6686 79.4715 27.488C79.4448 27.3084 79.4291 27.1269 79.4245 26.9446C79.1601 27.3186 78.8165 27.6317 78.3919 27.8842C77.9672 28.1366 77.5103 28.2618 77.0212 28.2618C76.2096 28.2618 75.5924 28.0546 75.1678 27.6391C74.7431 27.2246 74.5312 26.6525 74.5312 25.923C74.5312 25.1796 74.8315 24.5983 75.434 24.1773C76.0355 23.7573 76.8526 23.5473 77.8843 23.5473H79.4245V22.7772C79.4245 22.3212 79.2854 21.9601 79.0072 21.6939C78.7281 21.4276 78.3357 21.2941 77.8272 21.2941C77.3666 21.2941 76.9944 21.4092 76.7116 21.6395C76.4279 21.8698 76.287 22.1462 76.287 22.4667L74.9411 22.4815L74.9264 22.4382C74.8923 21.8726 75.1576 21.354 75.7214 20.8832C76.2842 20.4134 77.0129 20.1776 77.9055 20.1776C78.788 20.1776 79.4982 20.4024 80.0362 20.8501C80.5732 21.2987 80.8422 21.9453 80.8422 22.7891V26.5383C80.8422 26.8165 80.8569 27.0855 80.8855 27.3443C80.914 27.6032 80.9665 27.8584 81.0439 28.1071H79.5829V28.1108ZM77.2293 27.0744C77.7424 27.0744 78.2058 26.9427 78.6185 26.6783C79.0302 26.4149 79.2992 26.1127 79.4245 25.7719V24.5053H77.8336C77.2625 24.5053 76.8056 24.649 76.4629 24.9373C76.1193 25.2256 75.948 25.5637 75.948 25.9524C75.948 26.2979 76.0558 26.5715 76.2722 26.7732C76.4887 26.975 76.8065 27.0744 77.2293 27.0744Z" fill="black"/>
<path d="M87.4034 26.2537H87.4467L89.9947 20.3232H91.7651V28.1099H90.3475V22.7053L90.3042 22.6906L87.9146 28.1099H86.9354L84.5026 22.5681L84.4593 22.5828V28.1099H83.0416V20.3232H84.8692L87.4034 26.2537Z" fill="black"/>
</svg>
