<svg width="77" height="29" viewBox="0 0 77 29" fill="none" xmlns="http://www.w3.org/2000/svg">
<path d="M9.02001 7.22591C9.02001 8.50727 8.62206 9.5703 7.82893 10.4141C7.03488 11.2588 6.00501 11.6807 4.73839 11.6807C3.51508 11.6807 2.52021 11.2588 1.75563 10.4141C0.990138 9.5703 0.607849 8.50727 0.607849 7.22591V5.36146C0.607849 4.08563 0.990138 3.0226 1.75563 2.17327C2.52021 1.32395 3.51508 0.899292 4.73839 0.899292C6.00501 0.899292 7.03488 1.32303 7.82893 2.16959C8.62206 3.01707 9.02001 4.0801 9.02001 5.36146V7.22591ZM7.60232 5.34764C7.60232 4.3887 7.34347 3.60109 6.82485 2.98667C6.30623 2.37317 5.61075 2.0655 4.73747 2.0655C3.9121 2.0655 3.25346 2.37317 2.76155 2.98667C2.26964 3.60109 2.0237 4.38778 2.0237 5.34764V7.22591C2.0237 8.19591 2.26964 8.9872 2.76155 9.6007C3.25254 10.2151 3.91118 10.5219 4.73747 10.5219C5.61535 10.5219 6.31176 10.216 6.82854 9.60438C7.34439 8.99272 7.60232 8.20052 7.60232 7.22591V5.34764Z" fill="black"/>
<path d="M10.7355 10.4215C11.1095 10.4215 11.3822 10.1138 11.5526 9.49664C11.723 8.88037 11.8465 7.93893 11.9229 6.67231L12.1099 3.74298H17.2768V10.4215H18.3057V14.1062H16.888V11.5297H11.3896V14.1062H9.97186V10.4215H10.7355ZM13.348 6.67139C13.2899 7.58796 13.2126 8.34425 13.114 8.94209C13.0154 9.53993 12.868 10.0328 12.6718 10.4206H15.86V5.00223H13.4493L13.348 6.67139Z" fill="black"/>
<path d="M19.445 7.56398C19.445 6.41251 19.7564 5.46462 20.3809 4.71755C21.0046 3.9714 21.8511 3.59833 22.9215 3.59833C24.0011 3.59833 24.8541 3.97048 25.4796 4.71387C26.106 5.45818 26.4192 6.4079 26.4192 7.56398V7.72242C26.4192 8.88402 26.1069 9.83375 25.4833 10.5725C24.8588 11.3122 24.0094 11.6807 22.9353 11.6807C21.8603 11.6807 21.0101 11.3104 20.3837 10.5688C19.7573 9.8273 19.4441 8.87942 19.4441 7.72242L19.445 7.56398ZM20.8627 7.72242C20.8627 8.54779 21.0359 9.22946 21.3841 9.76651C21.7314 10.3045 22.2481 10.5725 22.9353 10.5725C23.6115 10.5725 24.1246 10.3045 24.4755 9.76651C24.8256 9.22946 25.0006 8.54871 25.0006 7.72242V7.56398C25.0006 6.74874 24.8247 6.06984 24.4719 5.52726C24.119 4.98561 23.6023 4.71387 22.9206 4.71387C22.2445 4.71387 21.7314 4.98561 21.3841 5.52726C21.0359 6.06984 20.8627 6.74874 20.8627 7.56398V7.72242Z" fill="black"/>
<path d="M31.739 3.59833C32.7321 3.59833 33.5169 3.97048 34.0926 4.71387C34.6684 5.45817 34.9567 6.4079 34.9567 7.56398V7.72242C34.9567 8.88402 34.6444 9.83375 34.0208 10.5725C33.3962 11.3122 32.5469 11.6807 31.4728 11.6807C30.3978 11.6807 29.5476 11.3104 28.9212 10.5688C28.2948 9.8273 27.9816 8.87941 27.9816 7.72242V7.56398C27.9816 7.52621 27.9816 7.49397 27.9816 7.46725C27.9816 7.44146 27.9834 7.41106 27.9889 7.37698V5.6857C27.9889 4.20814 28.2846 3.12024 28.8779 2.42199C29.4702 1.72374 30.3425 1.34421 31.494 1.28157C32.1563 1.24841 32.6667 1.1655 33.0268 1.03285C33.387 0.901125 33.5666 0.674517 33.5666 0.353027H34.6536L34.6684 0.396323C34.6914 1.15445 34.4399 1.68597 33.913 1.98995C33.3852 2.29486 32.6197 2.45699 31.6174 2.47541C30.8879 2.49476 30.302 2.69649 29.8617 3.0797C29.4204 3.46383 29.2067 4.0322 29.2215 4.78572L29.2427 4.82164C29.5255 4.46146 29.8875 4.16853 30.3297 3.94008C30.7691 3.71255 31.2398 3.59833 31.739 3.59833ZM31.4581 4.71387C30.7819 4.71387 30.2707 4.98561 29.9252 5.52726C29.5798 6.06983 29.4066 6.74874 29.4066 7.56398V7.72242C29.4066 8.54779 29.5798 9.22946 29.9252 9.76651C30.2707 10.3045 30.7865 10.5725 31.4728 10.5725C32.149 10.5725 32.6621 10.3045 33.013 9.76651C33.3631 9.22946 33.5381 8.54871 33.5381 7.72242V7.56398C33.5381 6.74874 33.3622 6.06983 33.0093 5.52726C32.6565 4.98561 32.1388 4.71387 31.4581 4.71387Z" fill="black"/>
<path d="M43.3184 7.93152C43.3184 9.05443 43.0495 9.95995 42.5124 10.6481C41.9754 11.3371 41.2338 11.6807 40.2887 11.6807C39.8088 11.6807 39.3878 11.6006 39.0258 11.4394C38.6628 11.2791 38.3552 11.0377 38.1009 10.7162V14.5234H36.6832V3.74294H37.7702L37.9931 4.75071C38.2474 4.37671 38.5643 4.09115 38.9429 3.89402C39.3215 3.69781 39.7636 3.59924 40.2675 3.59924C41.232 3.59924 41.9809 3.98245 42.5161 4.74702C43.0513 5.51252 43.3184 6.52397 43.3184 7.78045V7.93152ZM41.9008 7.77953C41.9008 6.89704 41.7276 6.17116 41.3794 5.6028C41.0312 5.03443 40.519 4.74979 39.8429 4.74979C39.4357 4.74979 39.0875 4.84283 38.7992 5.02706C38.5108 5.21222 38.2787 5.46554 38.1009 5.78611V9.55003C38.2778 9.87244 38.5108 10.1221 38.7992 10.3017C39.0875 10.4813 39.4394 10.5716 39.8567 10.5716C40.5282 10.5716 41.0367 10.3257 41.3821 9.83375C41.7276 9.34276 41.9008 8.70715 41.9008 7.9306V7.77953Z" fill="black"/>
<path d="M48.3813 11.6807C47.263 11.6807 46.3915 11.3233 45.7651 10.6085C45.1388 9.89454 44.8256 8.9531 44.8256 7.7869V7.47094C44.8256 6.35355 45.148 5.42869 45.7937 4.69636C46.4385 3.96495 47.2271 3.59924 48.1574 3.59924C49.1984 3.59924 49.9795 3.9235 50.5 4.57108C51.0195 5.21867 51.2811 6.08088 51.2811 7.15497V7.90389H46.3013L46.2801 7.93981C46.2801 8.72281 46.4533 9.35658 46.7987 9.84296C47.1442 10.3303 47.6711 10.5735 48.3822 10.5735C48.8621 10.5735 49.2831 10.5053 49.6451 10.368C50.0072 10.2317 50.3176 10.0429 50.5774 9.80335L51.1319 10.7245C50.8528 10.9935 50.4862 11.2201 50.0311 11.4043C49.5733 11.5877 49.0234 11.6807 48.3813 11.6807ZM48.1584 4.71386C47.6637 4.71386 47.2556 4.90454 46.9314 5.28591C46.6071 5.66728 46.41 6.1555 46.3372 6.75058L46.3519 6.7865H49.8644V6.67136C49.8644 6.10576 49.7253 5.6378 49.4471 5.26841C49.1671 4.89994 48.7387 4.71386 48.1584 4.71386Z" fill="black"/>
<path d="M59.3752 11.5297H57.9575V8.21897H54.4884V11.5297H53.0707V3.74298H54.4884V7.11079H57.9575V3.74298H59.3752V11.5297Z" fill="black"/>
<path d="M66.4653 3.74298H67.883V11.5297H66.4653V6.00262L66.422 5.98788L62.9824 11.5297H61.5721V3.74298H62.9824V9.27002L63.0257 9.28476L66.4653 3.74298Z" fill="black"/>
<path d="M73.2971 11.6807C72.1788 11.6807 71.3074 11.3233 70.681 10.6085C70.0546 9.89454 69.7414 8.9531 69.7414 7.7869V7.47094C69.7414 6.35355 70.0638 5.42869 70.7095 4.69636C71.3544 3.96495 72.1429 3.59924 73.0733 3.59924C74.1142 3.59924 74.8954 3.9235 75.4158 4.57108C75.9354 5.21867 76.197 6.08088 76.197 7.15497V7.90389H71.2171L71.1959 7.93981C71.1959 8.72281 71.3691 9.35658 71.7145 9.84296C72.06 10.3303 72.5869 10.5735 73.298 10.5735C73.778 10.5735 74.1989 10.5053 74.561 10.368C74.923 10.2317 75.2334 10.0429 75.4932 9.80335L76.0477 10.7245C75.7686 10.9935 75.402 11.2201 74.9469 11.4043C74.4891 11.5877 73.9392 11.6807 73.2971 11.6807ZM73.0742 4.71386C72.5795 4.71386 72.1714 4.90454 71.8472 5.28591C71.5229 5.66728 71.3258 6.1555 71.253 6.75058L71.2678 6.7865H74.7802V6.67136C74.7802 6.10576 74.6411 5.6378 74.3629 5.26841C74.0829 4.89994 73.6545 4.71386 73.0742 4.71386Z" fill="black"/>
<path d="M5.71767 20.3241H7.13536V28.1108H5.71767V22.5837L5.67438 22.569L2.23472 28.1108H0.824402V20.3241H2.23472V25.8511L2.27802 25.8659L5.71767 20.3241Z" fill="black"/>
<path d="M15.644 28.1108H14.2263V21.447H10.7507V28.1108H9.33301V20.3241H15.6449L15.644 28.1108Z" fill="black"/>
<path d="M17.4816 24.1451C17.4816 22.9936 17.793 22.0457 18.4175 21.2987C19.0412 20.5525 19.8877 20.1794 20.9581 20.1794C22.0378 20.1794 22.8908 20.5516 23.5162 21.295C24.1426 22.0393 24.4558 22.989 24.4558 24.1451V24.3035C24.4558 25.4651 24.1436 26.4149 23.5199 27.1536C22.8954 27.8934 22.0461 28.2618 20.972 28.2618C19.897 28.2618 19.0467 27.8915 18.4203 27.15C17.7939 26.4084 17.4807 25.4605 17.4807 24.3035L17.4816 24.1451ZM18.8993 24.3035C18.8993 25.1289 19.0725 25.8106 19.4207 26.3476C19.768 26.8856 20.2848 27.1536 20.972 27.1536C21.6481 27.1536 22.1612 26.8856 22.5122 26.3476C22.8622 25.8106 23.0372 25.1298 23.0372 24.3035V24.1451C23.0372 23.3299 22.8613 22.651 22.5085 22.1084C22.1557 21.5667 21.6389 21.295 20.9572 21.295C20.2811 21.295 19.768 21.5667 19.4207 22.1084C19.0725 22.651 18.8993 23.3299 18.8993 24.1451V24.3035Z" fill="black"/>
<path d="M32.0365 21.4249H29.4674V28.1108H28.0497V21.4249H25.5165V20.3241H32.0365V21.4249Z" fill="black"/>
<path d="M36.6461 28.2618C35.5278 28.2618 34.6563 27.9044 34.0299 27.1896C33.4035 26.4757 33.0903 25.5342 33.0903 24.368V24.052C33.0903 22.9347 33.4128 22.0098 34.0585 21.2775C34.7033 20.5461 35.4918 20.1804 36.4222 20.1804C37.4631 20.1804 38.2443 20.5046 38.7648 21.1522C39.2843 21.7998 39.5459 22.662 39.5459 23.7361V24.485H34.5661L34.5449 24.5209C34.5449 25.3039 34.7181 25.9377 35.0635 26.4241C35.4089 26.9114 35.9358 27.1546 36.647 27.1546C37.1269 27.1546 37.5479 27.0864 37.9099 26.9491C38.2719 26.8128 38.5824 26.624 38.8421 26.3845L39.3967 27.3056C39.1176 27.5746 38.7509 27.8012 38.2959 27.9855C37.8381 28.1688 37.2881 28.2618 36.6461 28.2618ZM36.4231 21.295C35.9285 21.295 35.5204 21.4857 35.1961 21.867C34.8719 22.2484 34.6748 22.7366 34.602 23.3317L34.6167 23.3676H38.1292V23.2525C38.1292 22.6869 37.9901 22.2189 37.7119 21.8495C37.4318 21.4811 37.0026 21.295 36.4231 21.295Z" fill="black"/>
<path d="M43.5161 24.8074H42.7893V28.1108H41.3716V20.3241H42.7893V23.6127H43.3936L46.1783 20.3241H47.841L47.8557 20.36L44.6242 24.0595L48.0998 28.0749L48.0851 28.1108H46.3431L43.5161 24.8074Z" fill="black"/>
<path d="M54.4287 20.3241H55.8464V28.1108H54.4287V22.5837L54.3854 22.569L50.9458 28.1108H49.5355V20.3241H50.9458V25.8511L50.9891 25.8659L54.4287 20.3241Z" fill="black"/>
</svg>
