<svg width="139" height="32" viewBox="0 0 139 32" fill="none" xmlns="http://www.w3.org/2000/svg">
<path d="M8.56944 8.17564L8.58417 8.21894C8.60352 9.20275 8.25808 10.0254 7.54785 10.6877C6.83763 11.35 5.89987 11.6807 4.73367 11.6807C3.54904 11.6807 2.58272 11.2607 1.83657 10.4215C1.09042 9.58228 0.717346 8.5174 0.717346 7.22591V5.36146C0.717346 4.07089 1.09042 3.00417 1.83657 2.16222C2.58272 1.32027 3.54811 0.899292 4.73367 0.899292C5.91922 0.899292 6.86158 1.21525 7.56167 1.84533C8.26268 2.47634 8.6026 3.31277 8.58325 4.35369L8.56851 4.39699H7.20794C7.20794 3.66281 6.99238 3.08247 6.56035 2.65505C6.12832 2.22854 5.51943 2.01483 4.73274 2.01483C3.94146 2.01483 3.31045 2.33448 2.83973 2.97193C2.36901 3.61031 2.13411 4.40159 2.13411 5.34672V7.22499C2.13411 8.18025 2.36901 8.97614 2.83973 9.61452C3.31045 10.2529 3.94054 10.5716 4.73274 10.5716C5.51943 10.5716 6.12924 10.3597 6.56035 9.93508C6.99146 9.51042 7.20794 8.92364 7.20794 8.17564H8.56944Z" fill="black"/>
<path d="M12.4893 8.22634H11.7625V11.5297H10.3448V3.74298H11.7625V7.03157H12.3668L15.1515 3.74298H16.8142L16.8289 3.77891L13.5975 7.47834L17.073 11.4937L17.0583 11.5297H15.3164L12.4893 8.22634Z" fill="black"/>
<path d="M23.4038 3.74298H24.8215V11.5297H23.4038V6.00262L23.3605 5.98788L19.9208 11.5297H18.5105V3.74298H19.9208V9.27002L19.9641 9.28476L23.4038 3.74298Z" fill="black"/>
<path d="M27.1548 10.4215C27.5288 10.4215 27.8005 10.1138 27.9719 9.49664C28.1423 8.88037 28.2648 7.93893 28.3422 6.67231L28.5292 3.74298H33.696V10.4215H34.725V14.1062H33.3073V11.5297H27.8088V14.1062H26.3911V10.4215H27.1548ZM29.7672 6.67139C29.7092 7.58796 29.6318 8.34425 29.5332 8.94209C29.4347 9.53901 29.2864 10.0328 29.0911 10.4206H32.2793V5.00223H29.8685L29.7672 6.67139Z" fill="black"/>
<path d="M38.5384 8.22634H37.8116V11.5297H36.3939V3.74298H37.8116V7.03157H38.4159L41.2006 3.74298H42.8633L42.8781 3.77891L39.6466 7.47834L43.1222 11.4937L43.1074 11.5297H41.3655L38.5384 8.22634Z" fill="black"/>
<path d="M49.0989 11.5296C49.051 11.2947 49.0132 11.0875 48.9874 10.9069C48.9616 10.7264 48.945 10.5458 48.9404 10.3634C48.677 10.7374 48.3324 11.0506 47.9078 11.303C47.4831 11.5554 47.0262 11.6807 46.5371 11.6807C45.7265 11.6807 45.1083 11.4735 44.6837 11.058C44.259 10.6435 44.0471 10.0714 44.0471 9.34186C44.0471 8.59847 44.3484 8.01721 44.9499 7.59623C45.5514 7.17618 46.3685 6.96615 47.4002 6.96615H48.9404V6.19605C48.9404 5.74007 48.8013 5.37897 48.5231 5.11275C48.2449 4.84653 47.8516 4.71296 47.3431 4.71296C46.8825 4.71296 46.5113 4.82811 46.2276 5.0584C45.9438 5.28869 45.8029 5.56505 45.8029 5.88561L44.4571 5.90035L44.4423 5.85706C44.4092 5.29146 44.6735 4.77284 45.2373 4.30212C45.8011 3.83232 46.5288 3.5965 47.4214 3.5965C48.3039 3.5965 49.0141 3.82126 49.5521 4.26895C50.0891 4.71756 50.3581 5.36423 50.3581 6.20802V9.95721C50.3581 10.2354 50.3728 10.5044 50.4014 10.7632C50.43 11.0221 50.4834 11.2772 50.5598 11.526H49.0989V11.5296ZM46.7462 10.4933C47.2602 10.4933 47.7226 10.3616 48.1353 10.0972C48.548 9.83377 48.8161 9.53162 48.9413 9.19079V7.92417H47.3505C46.7794 7.92417 46.3224 8.06787 45.9798 8.3562C45.6371 8.64453 45.4648 8.9826 45.4648 9.37134C45.4648 9.71678 45.5726 9.99037 45.7891 10.1921C46.0056 10.3938 46.3243 10.4933 46.7462 10.4933Z" fill="black"/>
<path d="M62.3828 11.5297H60.9651V8.21897H57.496V11.5297H56.0783V3.74298H57.496V7.11079H60.9651V3.74298H62.3828V11.5297Z" fill="black"/>
<path d="M69.2831 11.5296C69.2352 11.2947 69.1975 11.0875 69.1717 10.9069C69.1459 10.7264 69.1293 10.5458 69.1247 10.3634C68.8612 10.7374 68.5167 11.0506 68.092 11.303C67.6674 11.5554 67.2105 11.6807 66.7213 11.6807C65.9107 11.6807 65.2926 11.4735 64.8679 11.058C64.4433 10.6435 64.2314 10.0714 64.2314 9.34186C64.2314 8.59847 64.5326 8.01721 65.1342 7.59623C65.7357 7.17618 66.5528 6.96615 67.5845 6.96615H69.1247V6.19605C69.1247 5.74007 68.9856 5.37897 68.7074 5.11275C68.4292 4.84653 68.0359 4.71296 67.5274 4.71296C67.0668 4.71296 66.6955 4.82811 66.4118 5.0584C66.1281 5.28869 65.9872 5.56505 65.9872 5.88561L64.6413 5.90035L64.6266 5.85706C64.5934 5.29146 64.8578 4.77284 65.4216 4.30212C65.9853 3.83232 66.7131 3.5965 67.6057 3.5965C68.4882 3.5965 69.1984 3.82126 69.7363 4.26895C70.2734 4.71756 70.5424 5.36423 70.5424 6.20802V9.95721C70.5424 10.2354 70.5571 10.5044 70.5857 10.7632C70.6142 11.0221 70.6676 11.2772 70.7441 11.526H69.2831V11.5296ZM66.9304 10.4933C67.4445 10.4933 67.9069 10.3616 68.3196 10.0972C68.7323 9.83377 69.0003 9.53162 69.1256 9.19079V7.92417H67.5347C66.9636 7.92417 66.5067 8.06787 66.164 8.3562C65.8214 8.64453 65.6491 8.9826 65.6491 9.37134C65.6491 9.71678 65.7569 9.99037 65.9733 10.1921C66.1898 10.3938 66.5085 10.4933 66.9304 10.4933Z" fill="black"/>
<path d="M7.21056 28.1108H5.79287V21.447H2.31729V28.1108H0.899597V20.3241H7.21148L7.21056 28.1108Z" fill="black"/>
<path d="M9.05002 24.1451C9.05002 22.9936 9.36138 22.0448 9.98594 21.2987C10.6096 20.5525 11.4561 20.1794 12.5265 20.1794C13.6062 20.1794 14.4592 20.5516 15.0846 21.295C15.711 22.0393 16.0242 22.989 16.0242 24.1451V24.3035C16.0242 25.4651 15.712 26.4149 15.0883 27.1536C14.4638 27.8924 13.6144 28.2618 12.5404 28.2618C11.4653 28.2618 10.6151 27.8915 9.9887 27.15C9.3623 26.4084 9.0491 25.4605 9.0491 24.3035L9.05002 24.1451ZM10.4677 24.3035C10.4677 25.1289 10.6409 25.8106 10.9891 26.3476C11.3364 26.8847 11.8532 27.1536 12.5404 27.1536C13.2165 27.1536 13.7296 26.8847 14.0806 26.3476C14.4306 25.8106 14.6056 25.1289 14.6056 24.3035V24.1451C14.6056 23.3299 14.4297 22.651 14.0769 22.1084C13.7241 21.5667 13.2073 21.295 12.5256 21.295C11.8495 21.295 11.3364 21.5658 10.9891 22.1084C10.6409 22.651 10.4677 23.3299 10.4677 24.1451V24.3035Z" fill="black"/>
<path d="M17.8609 28.1108V20.3241H20.9339C21.9601 20.3241 22.7569 20.5028 23.3234 20.8602C23.889 21.2176 24.1728 21.7538 24.1728 22.4686C24.1728 22.8334 24.0622 23.1585 23.8421 23.4441C23.621 23.7297 23.3096 23.9471 22.9061 24.0954C23.3898 24.2151 23.7684 24.4399 24.0392 24.7678C24.31 25.0967 24.4454 25.4725 24.4454 25.8944C24.4454 26.624 24.1801 27.1758 23.6505 27.5498C23.1199 27.9238 22.3801 28.1108 21.4304 28.1108H17.8609ZM19.2786 23.6127H20.9413C21.54 23.6127 21.9933 23.5243 22.2982 23.3465C22.6022 23.1696 22.7551 22.9006 22.7551 22.5404C22.7551 22.171 22.6012 21.8929 22.2945 21.7059C21.9868 21.5189 21.5336 21.4249 20.9339 21.4249H19.2786V23.6127ZM19.2786 24.6997V27.0173H21.4304C21.9527 27.0173 22.3488 26.9179 22.6178 26.7189C22.8859 26.5199 23.0213 26.2334 23.0213 25.8585C23.0213 25.4891 22.8868 25.2036 22.6178 25.0018C22.3488 24.8001 21.9527 24.6997 21.4304 24.6997H19.2786Z" fill="black"/>
<path d="M32.1822 21.4249H29.613V28.1108H28.1953V21.4249H25.6621V20.3241H32.1822V21.4249Z" fill="black"/>
<path d="M33.2404 24.1451C33.2404 22.9936 33.5518 22.0448 34.1763 21.2987C34.8 20.5525 35.6465 20.1794 36.7169 20.1794C37.7965 20.1794 38.6496 20.5516 39.275 21.295C39.9014 22.0393 40.2146 22.989 40.2146 24.1451V24.3035C40.2146 25.4651 39.9024 26.4149 39.2787 27.1536C38.6542 27.8924 37.8048 28.2618 36.7307 28.2618C35.6557 28.2618 34.8055 27.8915 34.1791 27.15C33.5527 26.4084 33.2395 25.4605 33.2395 24.3035L33.2404 24.1451ZM34.6581 24.3035C34.6581 25.1289 34.8313 25.8106 35.1795 26.3476C35.5268 26.8847 36.0435 27.1536 36.7307 27.1536C37.4069 27.1536 37.92 26.8847 38.271 26.3476C38.621 25.8106 38.796 25.1289 38.796 24.3035V24.1451C38.796 23.3299 38.6201 22.651 38.2673 22.1084C37.9145 21.5667 37.3977 21.295 36.716 21.295C36.0399 21.295 35.5268 21.5658 35.1795 22.1084C34.8313 22.651 34.6581 23.3299 34.6581 24.1451V24.3035Z" fill="black"/>
<path d="M48.6901 24.5126C48.6901 25.6355 48.4211 26.5411 47.8841 27.2292C47.347 27.9182 46.6055 28.2618 45.6604 28.2618C45.1804 28.2618 44.7595 28.1817 44.3974 28.0205C44.0354 27.8593 43.7268 27.6188 43.4726 27.2973V31.1046H42.0549V20.3241H43.1419L43.3648 21.3318C43.6191 20.9578 43.9359 20.6723 44.3145 20.4751C44.6931 20.2789 45.1353 20.1804 45.6392 20.1804C46.6037 20.1804 47.3526 20.5636 47.8878 21.3281C48.423 22.0936 48.6901 23.1051 48.6901 24.3616V24.5126ZM47.2724 24.3606C47.2724 23.4782 47.0993 22.7523 46.7511 22.1839C46.4028 21.6155 45.8907 21.3309 45.2145 21.3309C44.8074 21.3309 44.4592 21.4239 44.1708 21.6082C43.8825 21.7933 43.6504 22.0467 43.4726 22.3672V26.1311C43.6495 26.4526 43.8825 26.7032 44.1708 26.8828C44.4592 27.0625 44.8111 27.1527 45.2284 27.1527C45.8999 27.1527 46.4084 26.9068 46.7538 26.4149C47.0992 25.923 47.2724 25.2883 47.2724 24.5117V24.3606Z" fill="black"/>
<path d="M56.8626 28.1108H55.4449V24.8001H51.9758V28.1108H50.5581V20.3241H51.9758V23.6919H55.4449V20.3241H56.8626V28.1108Z" fill="black"/>
<path d="M61.504 25.2247L61.7555 26.204H61.7988L63.713 20.3241H65.2891L62.0144 29.3055C61.8172 29.8279 61.5353 30.2848 61.1687 30.6726C60.8021 31.0604 60.3056 31.2557 59.6829 31.2557C59.5677 31.2557 59.4213 31.2419 59.2435 31.2161C59.0666 31.1893 58.9294 31.1645 58.8336 31.1405L58.9772 30.025C58.9487 30.0204 59.0344 30.025 59.2324 30.0397C59.4305 30.0545 59.5576 30.0609 59.6101 30.0609C59.9122 30.0609 60.16 29.9264 60.3516 29.6574C60.5432 29.3885 60.7045 29.0909 60.8334 28.7648L61.1715 27.9514L58.2781 20.3232H59.8616L61.504 25.2247Z" fill="black"/>
<path d="M68.1692 23.6127H70.0116C70.1074 22.5957 70.4611 21.7694 71.0727 21.1338C71.6844 20.4982 72.4821 20.1804 73.466 20.1804C74.5456 20.1804 75.3986 20.5525 76.0241 21.2959C76.6505 22.0402 76.9637 22.9899 76.9637 24.146V24.3045C76.9637 25.4661 76.6514 26.4158 76.0278 27.1546C75.4041 27.8933 74.5548 28.2627 73.4798 28.2627C72.472 28.2627 71.6595 27.9357 71.0433 27.2808C70.427 26.6258 70.0797 25.7728 70.0033 24.7227H68.1683V28.1126H66.7506V20.3259H68.1683V23.6127H68.1692ZM71.4081 24.3035C71.4081 25.1289 71.5812 25.8106 71.9294 26.3476C72.2776 26.8847 72.7935 27.1536 73.4807 27.1536C74.1568 27.1536 74.6709 26.8847 75.0209 26.3476C75.371 25.8106 75.546 25.1289 75.546 24.3035V24.1451C75.546 23.3299 75.37 22.6509 75.0172 22.1084C74.6644 21.5667 74.1476 21.295 73.466 21.295C72.7898 21.295 72.2776 21.5658 71.9294 22.1084C71.5812 22.6509 71.4081 23.3299 71.4081 24.1451V24.3035Z" fill="black"/>
<path d="M88.6802 28.1108H87.2625V21.447H83.787V28.1108H82.3693V20.3241H88.6812L88.6802 28.1108Z" fill="black"/>
<path d="M90.5197 24.1451C90.5197 22.9936 90.831 22.0448 91.4556 21.2987C92.0792 20.5525 92.9258 20.1794 93.9962 20.1794C95.0758 20.1794 95.9288 20.5516 96.5543 21.295C97.1807 22.0393 97.4939 22.989 97.4939 24.1451V24.3035C97.4939 25.4651 97.1816 26.4149 96.558 27.1536C95.9334 27.8924 95.0841 28.2618 94.01 28.2618C92.935 28.2618 92.0847 27.8915 91.4583 27.15C90.8319 26.4084 90.5187 25.4605 90.5187 24.3035V24.1451H90.5197ZM91.9374 24.3035C91.9374 25.1289 92.1105 25.8106 92.4587 26.3476C92.806 26.8847 93.3228 27.1536 94.01 27.1536C94.6861 27.1536 95.1992 26.8847 95.5502 26.3476C95.9002 25.8106 96.0753 25.1289 96.0753 24.3035V24.1451C96.0753 23.3299 95.8993 22.651 95.5465 22.1084C95.1937 21.5667 94.6769 21.295 93.9953 21.295C93.3191 21.295 92.806 21.5658 92.4587 22.1084C92.1105 22.651 91.9374 23.3299 91.9374 24.1451V24.3035Z" fill="black"/>
<path d="M101.511 24.8074H100.784V28.1108H99.3666V20.3241H100.784V23.6127H101.389L104.173 20.3241H105.836L105.851 20.36L102.619 24.0595L106.095 28.0749L106.08 28.1108H104.338L101.511 24.8074Z" fill="black"/>
<path d="M110.208 25.2247L110.459 26.204H110.503L112.417 20.3241H113.993L110.718 29.3055C110.521 29.8279 110.239 30.2848 109.873 30.6726C109.506 31.0604 109.009 31.2557 108.387 31.2557C108.272 31.2557 108.125 31.2419 107.947 31.2161C107.77 31.1893 107.632 31.1645 107.537 31.1405L107.681 30.025C107.653 30.0204 107.737 30.025 107.936 30.0397C108.135 30.0545 108.261 30.0609 108.314 30.0609C108.616 30.0609 108.863 29.9264 109.055 29.6574C109.247 29.3885 109.408 29.0909 109.537 28.7648L109.875 27.9514L106.982 20.3232H108.565L110.208 25.2247Z" fill="black"/>
<path d="M121.733 28.1108H120.315V21.447H116.84V28.1108H115.422V20.3241H121.734L121.733 28.1108Z" fill="black"/>
<path d="M126.109 24.8074H125.383V28.1108H123.965V20.3241H125.383V23.6127H125.987L128.772 20.3241H130.434L130.449 20.36L127.218 24.0595L130.693 28.0749L130.678 28.1108H128.936L126.109 24.8074Z" fill="black"/>
<path d="M134.806 25.2247L135.058 26.204H135.101L137.015 20.3241H138.591L135.316 29.3055C135.119 29.8279 134.837 30.2848 134.471 30.6726C134.104 31.0604 133.608 31.2557 132.985 31.2557C132.87 31.2557 132.723 31.2419 132.546 31.2161C132.369 31.1893 132.231 31.1645 132.136 31.1405L132.279 30.025C132.251 30.0204 132.336 30.025 132.535 30.0397C132.733 30.0545 132.86 30.0609 132.912 30.0609C133.214 30.0609 133.462 29.9264 133.654 29.6574C133.845 29.3885 134.007 29.0909 134.136 28.7648L134.474 27.9514L131.58 20.3232H133.164L134.806 25.2247Z" fill="black"/>
</svg>
