<svg width="45" height="41" viewBox="0 0 45 41" fill="none" xmlns="http://www.w3.org/2000/svg">
<rect y="13" width="30" height="22" rx="5" fill="#168457"/>
<circle cx="6" cy="19" r="2" fill="url(#paint0_linear_7_671)"/>
<path d="M4.5 29H19.5" stroke="url(#paint1_linear_7_671)" stroke-width="2" stroke-linecap="round"/>
<g filter="url(#filter0_bd_7_671)">
<path d="M27.8283 0.119953L15.8117 2.26576C15.0173 2.40762 14.387 3.01169 14.2315 3.80353C13.5429 7.30921 11.8788 16.9471 13.5 21C15.1273 25.0683 22.051 30.1297 24.5748 31.8747C25.1461 32.2697 25.8792 32.3198 26.4943 31.9972C29.0919 30.6348 36.0493 26.6596 38.5 22C40.8662 17.5011 40.3834 9.79345 40.1144 7.02644C40.0517 6.38067 39.6581 5.82161 39.0829 5.5215L29.105 0.315639C28.7128 0.111004 28.2638 0.0421853 27.8283 0.119953Z" fill="#168457" fill-opacity="0.2" shape-rendering="crispEdges"/>
</g>
<path d="M22.0078 15.5122L23.2771 17.6275C23.9044 18.6729 25.3131 18.9186 26.2573 18.1473L32.6269 12.9441" stroke="url(#paint2_linear_7_671)" stroke-width="2" stroke-linecap="round"/>
<defs>
<filter id="filter0_bd_7_671" x="8.8125" y="-3.91113" width="35.5332" height="44.1201" filterUnits="userSpaceOnUse" color-interpolation-filters="sRGB">
<feFlood flood-opacity="0" result="BackgroundImageFix"/>
<feGaussianBlur in="BackgroundImageFix" stdDeviation="2"/>
<feComposite in2="SourceAlpha" operator="in" result="effect1_backgroundBlur_7_671"/>
<feColorMatrix in="SourceAlpha" type="matrix" values="0 0 0 0 0 0 0 0 0 0 0 0 0 0 0 0 0 0 127 0" result="hardAlpha"/>
<feOffset dy="4"/>
<feGaussianBlur stdDeviation="2"/>
<feComposite in2="hardAlpha" operator="out"/>
<feColorMatrix type="matrix" values="0 0 0 0 0 0 0 0 0 0 0 0 0 0 0 0 0 0 0.25 0"/>
<feBlend mode="normal" in2="effect1_backgroundBlur_7_671" result="effect2_dropShadow_7_671"/>
<feBlend mode="normal" in="SourceGraphic" in2="effect2_dropShadow_7_671" result="shape"/>
</filter>
<linearGradient id="paint0_linear_7_671" x1="6" y1="17" x2="6" y2="21" gradientUnits="userSpaceOnUse">
<stop stop-color="#FCFBFD"/>
<stop offset="1" stop-color="white" stop-opacity="0.13"/>
</linearGradient>
<linearGradient id="paint1_linear_7_671" x1="3.5" y1="29" x2="21.5" y2="29" gradientUnits="userSpaceOnUse">
<stop stop-color="white"/>
<stop offset="1" stop-color="white" stop-opacity="0"/>
</linearGradient>
<linearGradient id="paint2_linear_7_671" x1="27.7052" y1="12.0626" x2="25.405" y2="22.3572" gradientUnits="userSpaceOnUse">
<stop stop-color="white"/>
<stop offset="1" stop-color="white" stop-opacity="0"/>
</linearGradient>
</defs>
</svg>
