<svg width="41" height="39" viewBox="0 0 41 39" fill="none" xmlns="http://www.w3.org/2000/svg">
<path fill-rule="evenodd" clip-rule="evenodd" d="M30.1802 33.3603C24.5578 33.3603 20 28.8025 20 23.1802C20 17.5578 24.5578 13 30.1802 13C35.8025 13 40.3604 17.5578 40.3604 23.1802C40.3604 25.0051 39.8801 26.718 39.0392 28.1992L39.7666 34.2095L35.5246 31.8463C33.9712 32.8063 32.1404 33.3603 30.1802 33.3603Z" fill="#168457"/>
<g filter="url(#filter0_bd_70_4)">
<path fill-rule="evenodd" clip-rule="evenodd" d="M18.5 29C26.5081 29 33 22.5081 33 14.5C33 6.49194 26.5081 0 18.5 0C10.4919 0 4 6.49194 4 14.5C4 17.0994 4.68399 19.5391 5.88181 21.6487L4.84571 30.2095L10.8878 26.8435C13.1003 28.2109 15.708 29 18.5 29Z" fill="#168457" fill-opacity="0.2" shape-rendering="crispEdges"/>
</g>
<circle cx="12" cy="16" r="2" fill="white"/>
<circle cx="18" cy="16" r="2" fill="white"/>
<circle cx="24" cy="16" r="2" fill="white"/>
<defs>
<filter id="filter0_bd_70_4" x="0" y="-4" width="37" height="42.2095" filterUnits="userSpaceOnUse" color-interpolation-filters="sRGB">
<feFlood flood-opacity="0" result="BackgroundImageFix"/>
<feGaussianBlur in="BackgroundImageFix" stdDeviation="2"/>
<feComposite in2="SourceAlpha" operator="in" result="effect1_backgroundBlur_70_4"/>
<feColorMatrix in="SourceAlpha" type="matrix" values="0 0 0 0 0 0 0 0 0 0 0 0 0 0 0 0 0 0 127 0" result="hardAlpha"/>
<feOffset dy="4"/>
<feGaussianBlur stdDeviation="2"/>
<feComposite in2="hardAlpha" operator="out"/>
<feColorMatrix type="matrix" values="0 0 0 0 0 0 0 0 0 0 0 0 0 0 0 0 0 0 0.25 0"/>
<feBlend mode="normal" in2="effect1_backgroundBlur_70_4" result="effect2_dropShadow_70_4"/>
<feBlend mode="normal" in="SourceGraphic" in2="effect2_dropShadow_70_4" result="shape"/>
</filter>
</defs>
</svg>
